<?xml version="1.0" standalone="no"?>
<!DOCTYPE svg PUBLIC "-//W3C//DTD SVG 1.1//EN" "http://www.w3.org/Graphics/SVG/1.1/DTD/svg11.dtd" >
<!--
2013-9-30: Created.
-->
<svg>
<metadata>
Created by iconfont
</metadata>
<defs>

<font id="iconfont" horiz-adv-x="1024" >
  <font-face
    font-family="iconfont"
    font-weight="500"
    font-stretch="normal"
    units-per-em="1024"
    ascent="896"
    descent="-128"
  />
    <missing-glyph />
    
    <glyph glyph-name="dabaoyu-baoyudaodabaoyu" unicode="&#58880;" d="M798.4 546.1c-15.1 3.3-30.3 6.1-45.5 8.4-22.5 132.7-137.9 233.7-277 233.7-148.9 0-270.7-115.8-280.3-262.2-46.8-30.1-87.5-82.6-87.5-151.5v-7.2c0-97.7 68.1-164 159.7-177.7 91.6-13.7 420-13.7 489.4 0s159.7 80 159.7 177.7v7.2c0 97.6-38.2 154-118.5 171.6zM649.5 106.1c0-34.4-19.8-44.4-36.9-44.4-16.3 0-36.9 10-36.9 44.4s36.9 62.4 36.9 62.4 36.9-28 36.9-62.4zM829.4 106.1c0-34.4-19.8-44.4-36.9-44.4-16.3 0-36.9 10-36.9 44.4s36.9 62.4 36.9 62.4 36.9-28 36.9-62.4zM289.6 106.1c0-34.4-19.8-44.4-36.9-44.4-16.3 0-36.9 10-36.9 44.4s36.9 62.4 36.9 62.4 36.9-28 36.9-62.4zM469.6 106.1c0-34.4-19.8-44.4-36.9-44.4-16.3 0-36.9 10-36.9 44.4s36.9 62.4 36.9 62.4 36.9-28 36.9-62.4zM344.2-20.2h-3.1c-13.8 0-25 11.3-25 25v54.6c0 13.8 11.3 25 25 25h3.1c13.8 0 25-11.3 25-25v-54.6c0-13.7-11.2-25-25-25zM527.9-20.2h-3.1c-13.8 0-25 11.3-25 25v54.6c0 13.8 11.3 25 25 25h3.1c13.8 0 25-11.3 25-25v-54.6c0-13.7-11.2-25-25-25zM711.6-20.2h-3.1c-13.8 0-25 11.3-25 25v54.6c0 13.8 11.3 25 25 25h3.1c13.8 0 25-11.3 25-25v-54.6c0-13.7-11.2-25-25-25z"  horiz-adv-x="1024" />

    
    <glyph glyph-name="dayu-zhongdaodayu" unicode="&#58881;" d="M797.9 545.4c-15.1 3.3-30.3 6.1-45.5 8.4-22.5 132.7-137.9 233.7-277 233.7-148.9 0-270.7-115.8-280.3-262.2-46.8-30.1-87.5-82.6-87.5-151.5v-7.2c0-97.7 68.1-164 159.7-177.7 91.6-13.7 420-13.7 489.4 0s159.7 80 159.7 177.7v7.2c0 97.7-38.2 154.1-118.5 171.6zM569.3 38.7c0-47-26.9-60.6-50.4-60.6-22.2 0-50.4 13.6-50.4 60.6s50.4 85 50.4 85 50.4-38 50.4-85zM742.6 75.3c0-40-23-51.6-42.9-51.6-18.9 0-42.9 11.6-42.9 51.6s42.9 72.4 42.9 72.4 42.9-32.4 42.9-72.4zM879.7 144.8c0-27.3-15.7-35.2-29.3-35.2-12.9 0-29.3 7.9-29.3 35.2 0 27.3 29.3 49.4 29.3 49.4s29.3-22.1 29.3-49.4zM216.7 144.8c0-27.3-15.7-35.2-29.3-35.2-12.9 0-29.3 7.9-29.3 35.2 0 27.3 29.3 49.4 29.3 49.4s29.3-22.1 29.3-49.4zM381.1 75.3c0-40-23-51.6-42.9-51.6-18.9 0-42.9 11.6-42.9 51.6s42.9 72.4 42.9 72.4 42.9-32.4 42.9-72.4z"  horiz-adv-x="1024" />

    
    <glyph glyph-name="dongyu" unicode="&#58882;" d="M797.9 541.2c-15.1 3.3-30.3 6.1-45.5 8.4-22.5 132.7-137.9 233.7-277 233.7-148.9 0-270.7-115.8-280.3-262.2-46.8-30.1-87.5-82.6-87.5-151.5v-7.2c0-97.7 68.1-164 159.7-177.7 91.6-13.7 420-13.7 489.4 0s159.7 80 159.7 177.7v7.2c0 97.7-38.2 154-118.5 171.6zM528.2-15.3l-53.3 72.1 53.3 72 53.3-72zM698.8 28.2l-46.3 62.6 46.3 62.7 46.4-62.7zM357.8 28.2l-46.3 62.6 46.3 62.7 46.4-62.7zM838.2 82.3l-34.5 46.5 34.5 46.5 34.4-46.5zM203.4 82.3L169 128.8l34.4 46.5 34.4-46.5z"  horiz-adv-x="1024" />

    
    <glyph glyph-name="leizhenyubanyoubingbao" unicode="&#58883;" d="M798.4 551.8c-15.1 3.3-30.3 6.1-45.5 8.4-22.5 132.7-137.9 233.7-277 233.7-148.9 0-270.7-115.8-280.3-262.2-46.8-30.1-87.5-82.6-87.5-151.5v-7.2c0-97.7 68.1-164 159.7-177.7 91.6-13.7 420-13.7 489.4 0s159.7 80 159.7 177.7v7.2c0 97.7-38.2 154-118.5 171.6zM868.8 137.4c0-33.8-19.4-43.5-36.2-43.5-15.9 0-36.2 9.8-36.2 43.5 0 33.8 36.2 61.1 36.2 61.1s36.2-27.4 36.2-61.1zM242.8 137.4c0-33.8-19.4-43.5-36.2-43.5-15.9 0-36.2 9.8-36.2 43.5 0 33.8 36.2 61.1 36.2 61.1s36.2-27.4 36.2-61.1zM580.1 303.3L444.2 143.5l52.1-28.3-65.5-142.1L615 117.7l-67.8 26.6zM336.4 44.6m-52.2 0a52.2 52.2 0 1 1 104.4 0 52.2 52.2 0 1 1-104.4 0ZM699.4 44.6m-52.2 0a52.2 52.2 0 1 1 104.4 0 52.2 52.2 0 1 1-104.4 0Z"  horiz-adv-x="1024" />

    
    <glyph glyph-name="baoxue-dadaobaoxue" unicode="&#58884;" d="M798.4 540.4c-15.1 3.3-30.3 6.1-45.5 8.4-22.5 132.7-137.9 233.7-277 233.7-148.9 0-270.7-115.8-280.3-262.2-46.8-30.1-87.5-82.6-87.5-151.5v-7.2c0-97.7 68.1-164 159.7-177.7 91.6-13.7 420-13.7 489.4 0s159.7 80 159.7 177.7v7.2c0 97.7-38.2 154.1-118.5 171.6zM571.8 25.5L543.3 42l28.5 16.5c5.1 3 6.9 9.6 3.9 14.7-3 5.1-9.6 6.9-14.7 3.9l-28.5-16.5v32.9c0 5.9-4.8 10.7-10.7 10.7-5.9 0-10.7-4.8-10.7-10.7v-32.9L482.6 77c-5.1 3-11.7 1.2-14.7-3.9s-1.2-11.7 3.9-14.7l28.5-16.5-28.5-16.5c-5.1-3-6.9-9.6-3.9-14.7 3-5.1 9.6-6.9 14.7-3.9l28.5 16.5v-32.9c0-5.9 4.8-10.7 10.7-10.7 5.9 0 10.7 4.8 10.7 10.7v32.9l28.5-16.5c5.1-3 11.7-1.2 14.7 3.9 3 5.2 1.2 11.8-3.9 14.8zM262.3 107.6l-28.1 16.2 28.1 16.2c5.1 2.9 6.8 9.4 3.9 14.5s-9.4 6.8-14.5 3.9l-28.1-16.2v32.5c0 5.8-4.8 10.6-10.6 10.6s-10.6-4.8-10.6-10.6v-32.5l-28.1 16.2c-5.1 2.9-11.6 1.2-14.5-3.9-2.9-5.1-1.2-11.6 3.9-14.5l28.1-16.2-28.1-16.2c-5.1-2.9-6.8-9.4-3.9-14.5s9.4-6.8 14.5-3.9l28.1 16.2V73c0-5.8 4.8-10.6 10.6-10.6s10.6 4.8 10.6 10.6v32.5l28.1-16.2c5.1-2.9 11.6-1.2 14.5 3.9 2.9 5 1.2 11.5-3.9 14.4zM873.5 107.6l-28.1 16.2 28.1 16.2c5.1 2.9 6.8 9.4 3.9 14.5s-9.4 6.8-14.5 3.9l-28.1-16.2v32.5c0 5.8-4.8 10.6-10.6 10.6s-10.6-4.8-10.6-10.6v-32.5l-28.1 16.2c-5.1 2.9-11.6 1.2-14.5-3.9-2.9-5.1-1.2-11.6 3.9-14.5l28.1-16.2-28.1-16.2c-5.1-2.9-6.8-9.4-3.9-14.5s9.4-6.8 14.5-3.9l28.1 16.2V73c0-5.8 4.8-10.6 10.6-10.6s10.6 4.8 10.6 10.6v32.5l28.1-16.2c5.1-2.9 11.6-1.2 14.5 3.9 2.9 5 1.1 11.5-3.9 14.4zM742.6 26l-15.6 9 15.6 9c2.8 1.6 3.8 5.2 2.1 8-1.6 2.8-5.2 3.8-8 2.1l-15.6-9v18c0 3.2-2.6 5.9-5.9 5.9-3.2 0-5.9-2.6-5.9-5.9v-18l-15.6 9c-2.8 1.6-6.4 0.6-8-2.1-1.6-2.8-0.6-6.4 2.1-8l15.6-9-15.6-9c-2.8-1.6-3.8-5.2-2.1-8 1.6-2.8 5.2-3.8 8-2.1l15.6 9v-18c0-3.2 2.6-5.9 5.9-5.9 3.2 0 5.9 2.6 5.9 5.9v18l15.6-9c2.8-1.6 6.4-0.6 8 2.1 1.6 2.8 0.7 6.4-2.1 8zM333.9 26l-15.6 9 15.6 9c2.8 1.6 3.8 5.2 2.1 8-1.6 2.8-5.2 3.8-8 2.1l-15.6-9v18c0 3.2-2.6 5.9-5.9 5.9-3.2 0-5.9-2.6-5.9-5.9v-18l-15.6 9c-2.8 1.6-6.4 0.6-8-2.1-1.6-2.8-0.6-6.4 2.1-8l15.6-9-15.6-9c-2.8-1.6-3.8-5.2-2.1-8 1.6-2.8 5.2-3.8 8-2.1l15.6 9v-18c0-3.2 2.6-5.9 5.9-5.9 3.2 0 5.9 2.6 5.9 5.9v18l15.6-9c2.8-1.6 6.4-0.6 8 2.1 1.7 2.8 0.7 6.4-2.1 8zM431.3 95.6l-22.8 13.2 22.8 13.2c4.1 2.4 5.5 7.7 3.1 11.8-2.4 4.1-7.7 5.5-11.8 3.1l-22.8-13.2v26.4c0 4.7-3.9 8.6-8.6 8.6-4.7 0-8.6-3.9-8.6-8.6v-26.4l-22.8 13.2c-4.1 2.4-9.4 0.9-11.8-3.1-2.4-4.1-0.9-9.4 3.1-11.8l22.8-13.2-22.8-13.2c-4.1-2.4-5.5-7.7-3.1-11.8 2.4-4.1 7.7-5.5 11.8-3.1l22.8 13.2v-26.4c0-4.7 3.9-8.6 8.6-8.6 4.7 0 8.6 3.9 8.6 8.6v26.4l22.8-13.2c4.1-2.4 9.4-0.9 11.8 3.1 2.4 4.2 1 9.5-3.1 11.8zM690.7 95.6l-22.8 13.2 22.8 13.2c4.1 2.4 5.5 7.7 3.1 11.8-2.4 4.1-7.7 5.5-11.8 3.1l-22.8-13.2v26.4c0 4.7-3.9 8.6-8.6 8.6-4.7 0-8.6-3.9-8.6-8.6v-26.4l-22.8 13.2c-4.1 2.4-9.4 0.9-11.8-3.1-2.4-4.1-0.9-9.4 3.1-11.8l22.8-13.2-22.8-13.2c-4.1-2.4-5.5-7.7-3.1-11.8 2.4-4.1 7.7-5.5 11.8-3.1l22.8 13.2v-26.4c0-4.7 3.9-8.6 8.6-8.6 4.7 0 8.6 3.9 8.6 8.6v26.4l22.8-13.2c4.1-2.4 9.4-0.9 11.8 3.1 2.4 4.2 1 9.5-3.1 11.8z"  horiz-adv-x="1024" />

    
    <glyph glyph-name="mai" unicode="&#58885;" d="M859.9 516.3c-41.9 33.6-97.2 52.1-155.7 52.1S590.3 550 548.4 516.3c-15.9-12.8-29.2-27.2-39.7-42.8-10.5 15.6-23.8 30-39.7 42.8-41.9 33.6-97.2 52.1-155.7 52.1S199.4 550 157.5 516.3c-43.7-35.1-67.7-82.2-67.7-132.8s24-97.8 67.7-132.8c41.9-33.6 97.2-52.1 155.7-52.1S427.1 217 469 250.7c15.9 12.8 29.2 27.2 39.7 42.8 10.5-15.6 23.8-30 39.7-42.8 41.9-33.6 97.2-52.1 155.7-52.1S818 217 859.9 250.7c43.7 35.1 67.7 82.2 67.7 132.8s-24 97.8-67.7 132.8z m-426-222c-32-25.7-74.8-39.8-120.7-39.8s-88.7 14.1-120.7 39.8c-30.2 24.2-46.8 55.9-46.8 89.2s16.6 64.9 46.8 89.2c32 25.7 74.8 39.8 120.7 39.8s88.7-14.1 120.7-39.8c30.2-24.2 46.8-55.9 46.8-89.2s-16.6-64.9-46.8-89.2z m390.9 0c-32-25.7-74.8-39.8-120.7-39.8s-88.7 14.1-120.7 39.8c-30.2 24.2-46.8 55.9-46.8 89.2s16.6 64.9 46.8 89.2c32 25.7 74.8 39.8 120.7 39.8s88.7-14.1 120.7-39.8c30.2-24.2 46.8-55.9 46.8-89.2s-16.6-64.9-46.8-89.2z"  horiz-adv-x="1024" />

    
    <glyph glyph-name="fengbaokuangbaofengjufenglongjuanfengredaifengbao" unicode="&#58886;" d="M925.6 281c-6.6 92-71.5 184.3-169.4 240.8-68.2 39.4-144.2 56.7-213.8 48.7-31.5-3.6-60.3-12.3-85.7-25.7 22.9 26.8 51.6 50.6 84.7 69.7 41.1 23.7 85.9 38.3 129.6 42.1 41.4 3.6 79.8-2.5 111.2-17.8 13.9-6.8 30.7-1 37.4 13s1 30.7-13 37.4c-83 40.3-195.4 30.3-293.3-26.2-68.3-39.4-121.2-96.5-149.1-160.8-12.6-29.1-19.5-58.3-20.6-87-11.8 33.2-18 70-18 108.2 0 47.5 9.8 93.6 28.4 133.3 17.6 37.7 42.1 67.9 71 87.4 12.8 8.7 16.2 26.1 7.5 38.9s-26.1 16.2-38.9 7.5c-76.4-51.7-123.9-154.1-123.9-267.1 0-78.8 23-153.2 64.7-209.5 18.9-25.5 40.8-46.1 65.1-61.4-34.7 6.4-69.7 19.4-102.8 38.5-41.1 23.7-76.1 55.3-101.3 91.2-23.8 34.1-37.7 70.4-40.2 105.2-1.1 15.4-14.5 27-29.9 25.9-15.4-1.1-27-14.5-25.9-29.9 6.6-92.1 71.5-184.4 169.3-240.9 57.4-33.1 120.1-50.6 180-50.6 11.4 0 22.7 0.6 33.8 1.9 31.5 3.6 60.3 12.3 85.7 25.7-22.9-26.8-51.6-50.6-84.7-69.7-41.1-23.7-85.9-38.3-129.6-42.1-41.4-3.6-79.9 2.5-111.2 17.8-13.9 6.8-30.7 1-37.4-13s-1-30.7 13-37.4c33.8-16.4 72.4-24.5 112.9-24.5 59.1 0 122.3 17.2 180.3 50.7 68.3 39.4 121.2 96.5 149.1 160.8 12.6 29.1 19.5 58.3 20.6 87 11.8-33.2 18-70 18-108.2 0-47.5-9.8-93.6-28.4-133.3-17.6-37.7-42.1-67.9-71-87.4-12.8-8.7-16.2-26.1-7.5-38.9 5.4-8 14.2-12.3 23.2-12.3 5.4 0 10.9 1.6 15.7 4.8 76.4 51.7 123.9 154.1 123.9 267.1 0 78.8-23 153.2-64.7 209.5-18.9 25.5-40.7 46.1-65.1 61.4 34.7-6.4 69.7-19.4 102.8-38.5 41.1-23.7 76.1-55.3 101.3-91.2 23.8-34.1 37.7-70.4 40.2-105.2 1.1-14.7 13.3-26 27.9-26 0.7 0 1.3 0 2 0.1 15.6 1.1 27.2 14.5 26.1 30zM608.4 423.1c0-0.1 0-0.1 0 0 8.8-37.9 4.5-73.9-12.6-103.5v-0.1c-28.4-26.5-61.7-40.8-95.8-40.8h-0.1c-37.1 11.4-66.2 33-83.3 62.6v0.1c-8.7 37.8-4.5 73.8 12.6 103.4v0.1c28.4 26.5 61.7 40.8 95.8 40.8h0.1c37.2-11.4 66.2-33 83.3-62.6z"  horiz-adv-x="1024" />

    
    <glyph glyph-name="fuchen" unicode="&#58887;" d="M885 77.7H140c-15.5 0-28 12.5-28 28s12.5 28 28 28h745c15.5 0 28-12.5 28-28s-12.6-28-28-28zM521.415124 249.356974a49.3 49.3 0 1 1 19.561547 96.640084 49.3 49.3 0 1 1-19.561547-96.640084ZM268.967364 209.61137a49.3 49.3 0 1 1 19.561547 96.640084 49.3 49.3 0 1 1-19.561547-96.640084ZM363.637919 341.997102a49.3 49.3 0 1 1 19.561547 96.640085 49.3 49.3 0 1 1-19.561547-96.640085ZM268.985363 485.629362a49.3 49.3 0 1 1 19.561547 96.640084 49.3 49.3 0 1 1-19.561547-96.640084ZM753.099274 215.696354a49.3 49.3 0 1 1 19.561547 96.640084 49.3 49.3 0 1 1-19.561547-96.640084ZM632.060728 371.609214a49.3 49.3 0 1 1 19.561547 96.640084 49.3 49.3 0 1 1-19.561547-96.640084ZM736.462652 505.663131a49.3 49.3 0 1 1 19.561547 96.640084 49.3 49.3 0 1 1-19.561547-96.640084ZM502.699974 535.531498a49.3 49.3 0 1 1 19.561547 96.640084 49.3 49.3 0 1 1-19.561547-96.640084Z"  horiz-adv-x="1024" />

    
    <glyph glyph-name="daxue-zhongdaodaxue" unicode="&#58888;" d="M798.4 529.7c-15.1 3.3-30.3 6.1-45.5 8.4-22.5 132.7-137.9 233.7-277 233.7-148.9 0-270.7-115.8-280.3-262.2-46.8-30.1-87.5-82.6-87.5-151.5v-7.2c0-97.7 68.1-164 159.7-177.7 91.6-13.7 420-13.7 489.4 0s159.7 80 159.7 177.7v7.2c0 97.7-38.2 154.1-118.5 171.6zM556.8 14.8l-28.5 16.5 28.5 16.5c5.1 3 6.9 9.6 3.9 14.7-3 5.1-9.6 6.9-14.7 3.9l-28.5-16.5v32.9c0 5.9-4.8 10.7-10.7 10.7-5.9 0-10.7-4.8-10.7-10.7v-32.9l-28.5 16.5c-5.1 3-11.7 1.2-14.7-3.9s-1.2-11.7 3.9-14.7l28.5-16.5-28.5-16.5c-5.1-3-6.9-9.6-3.9-14.7 3-5.1 9.6-6.9 14.7-3.9l28.5 16.5v-32.9c0-5.9 4.8-10.7 10.7-10.7 5.9 0 10.7 4.8 10.7 10.7v32.9l28.5-16.5c5.1-3 11.7-1.2 14.7 3.9s1.2 11.7-3.9 14.7zM874.4 116.3l-21.1 12.2 21.1 12.2c3.8 2.2 5.1 7.1 2.9 10.9-2.2 3.8-7.1 5.1-10.9 2.9l-21.1-12.2v24.4c0 4.4-3.6 8-8 8s-8-3.6-8-8v-24.4l-21.1 12.2c-3.8 2.2-8.7 0.9-10.9-2.9-2.2-3.8-0.9-8.7 2.9-10.9l21.1-12.2-21.1-12.2c-3.8-2.2-5.1-7.1-2.9-10.9 2.2-3.8 7.1-5.1 10.9-2.9l21.1 12.2v-24.4c0-4.4 3.6-8 8-8s8 3.6 8 8v24.4l21.1-12.2c3.8-2.2 8.7-0.9 10.9 2.9 2.2 3.8 0.9 8.7-2.9 10.9zM221.5 116.3l-21.1 12.2 21.1 12.2c3.8 2.2 5.1 7.1 2.9 10.9-2.2 3.8-7.1 5.1-10.9 2.9l-21.1-12.2v24.4c0 4.4-3.6 8-8 8s-8-3.6-8-8v-24.4l-21.1 12.2c-3.8 2.2-8.7 0.9-10.9-2.9-2.2-3.8-0.9-8.7 2.9-10.9l21.1-12.2-21.1-12.2c-3.8-2.2-5.1-7.1-2.9-10.9 2.2-3.8 7.1-5.1 10.9-2.9l21.1 12.2v-24.4c0-4.4 3.6-8 8-8s8 3.6 8 8v24.4l21.1-12.2c3.8-2.2 8.7-0.9 10.9 2.9 2.2 3.8 0.9 8.7-2.9 10.9zM722.6 49.4l-15.6 9 15.6 9c2.8 1.6 3.8 5.2 2.1 8-1.6 2.8-5.2 3.8-8 2.1l-15.6-9v18c0 3.2-2.6 5.9-5.9 5.9-3.2 0-5.9-2.6-5.9-5.9v-18l-15.6 9c-2.8 1.6-6.4 0.6-8-2.1-1.6-2.8-0.6-6.4 2.1-8l15.6-9-15.6-9c-2.8-1.6-3.8-5.2-2.1-8 1.6-2.8 5.2-3.8 8-2.1l15.6 9v-18c0-3.2 2.6-5.9 5.9-5.9 3.2 0 5.9 2.6 5.9 5.9v18l15.6-9c2.8-1.6 6.4-0.6 8 2.1 1.6 2.8 0.7 6.4-2.1 8zM362.1 49.4l-15.6 9 15.6 9c2.8 1.6 3.8 5.2 2.1 8-1.6 2.8-5.2 3.8-8 2.1l-15.6-9v18c0 3.2-2.6 5.9-5.9 5.9-3.2 0-5.9-2.6-5.9-5.9v-18l-15.6 9c-2.8 1.6-6.4 0.6-8-2.1-1.6-2.8-0.6-6.4 2.1-8l15.6-9-15.6-9c-2.8-1.6-3.8-5.2-2.1-8 1.6-2.8 5.2-3.8 8-2.1l15.6 9v-18c0-3.2 2.6-5.9 5.9-5.9 3.2 0 5.9 2.6 5.9 5.9v18l15.6-9c2.8-1.6 6.4-0.6 8 2.1 1.7 2.8 0.7 6.4-2.1 8z"  horiz-adv-x="1024" />

    
    <glyph glyph-name="pingjing" unicode="&#58889;" d="M716.5 395.4c-65.6 0-135.5 17.4-208.4 52.1-50.5 24-103 39-156.2 44.6-42.6 4.5-85.8 3-128.4-4.4-73.1-12.7-119.6-38.9-120.1-39.2-13.4-7.7-30.5-3.1-38.2 10.3-7.7 13.4-3.1 30.5 10.3 38.3 2.2 1.2 53.8 30.6 135.8 45.3 47.9 8.6 96.6 10.5 144.7 5.5 60.1-6.1 119.3-22.9 176-49.8 87.2-41.4 168.1-55.4 240.5-41.4 59.1 11.4 100.5 39.2 125.2 55.8 5.2 3.5 9.6 6.5 13.8 9 13.2 8.1 30.4 4.1 38.5-9.1 8.1-13.2 4.1-30.4-9.1-38.5-3.3-2-7.3-4.7-12-7.9-28.3-19-75.5-50.7-145.8-64.3-21.6-4.2-43.8-6.3-66.6-6.3zM716.5 563.2c-65.6 0-135.5 17.4-208.4 52.1-50.9 24.2-104 39.2-157.7 44.7-42.9 4.4-86.4 2.7-129.2-5-72.5-13-117.3-38.5-117.8-38.7-13.4-7.7-30.5-3.1-38.2 10.3-7.7 13.4-3.1 30.5 10.3 38.2 2.2 1.2 53.8 30.6 135.8 45.3 47.9 8.6 96.6 10.5 144.7 5.5 60.1-6.1 119.3-22.9 176-49.8 87.2-41.4 168.1-55.4 240.5-41.4 59.1 11.4 100.5 39.2 125.2 55.8 5.2 3.5 9.6 6.5 13.8 9 13.2 8.1 30.4 4.1 38.5-9.1 8.1-13.2 4.1-30.4-9.1-38.5-3.3-2-7.3-4.7-12-7.9-28.3-19-75.5-50.7-145.8-64.3-21.6-4.1-43.8-6.2-66.6-6.2zM716.5 213.9c-65.6 0-135.5 17.4-208.4 52.1-50.5 24-103 39-156.2 44.6-42.6 4.5-85.8 3-128.4-4.4-73.1-12.7-119.6-38.9-120.1-39.2-13.4-7.7-30.5-3.1-38.2 10.3-7.7 13.4-3.1 30.5 10.3 38.3 2.2 1.2 53.8 30.6 135.8 45.3 47.9 8.6 96.6 10.5 144.7 5.5 60.1-6.1 119.3-22.9 176-49.8 87.2-41.4 168.1-55.4 240.5-41.4 59.1 11.4 100.5 39.2 125.2 55.8 5.2 3.5 9.6 6.5 13.8 9 13.2 8.1 30.4 4.1 38.5-9.1 8.1-13.2 4.1-30.4-9.1-38.5-3.3-2-7.3-4.7-12-7.9-28.3-19-75.5-50.7-145.8-64.3-21.6-4.2-43.8-6.3-66.6-6.3zM716.5 45c-65.6 0-135.5 17.4-208.4 52.1-50.5 24-103 39-156.2 44.6-42.6 4.5-85.8 3-128.4-4.4-73.1-12.7-119.6-38.9-120.1-39.2-13.4-7.7-30.5-3.1-38.2 10.3-7.7 13.4-3.1 30.5 10.3 38.3 2.2 1.2 53.8 30.6 135.8 45.3 47.9 8.6 96.6 10.5 144.7 5.5 60.1-6.1 119.3-22.9 176-49.8 87.2-41.4 168.1-55.4 240.5-41.4 59.1 11.4 100.5 39.2 125.2 55.8 5.2 3.5 9.6 6.5 13.8 9 13.2 8.1 30.4 4.1 38.5-9.1 8.1-13.2 4.1-30.4-9.1-38.5-3.3-2-7.3-4.7-12-7.9-28.3-19-75.5-50.7-145.8-64.3-21.6-4.2-43.8-6.3-66.6-6.3z"  horiz-adv-x="1024" />

    
    <glyph glyph-name="qiangfengjifengdafengliefeng" unicode="&#58890;" d="M272 648.7h605c15.5 0 28 12.5 28 28s-12.5 28-28 28H272c-15.5 0-28-12.5-28-28s12.6-28 28-28zM790 555.3c0 15.5-12.5 28-28 28H147c-15.5 0-28-12.5-28-28s12.5-28 28-28h615c15.4 0 28 12.5 28 28zM877 462H322c-15.5 0-28-12.5-28-28s12.5-28 28-28h555c15.5 0 28 12.5 28 28s-12.6 28-28 28zM782 340.6H447c-15.5 0-28-12.5-28-28s12.5-28 28-28h335c15.5 0 28 12.5 28 28s-12.6 28-28 28zM707 219.2H467c-15.5 0-28-12.5-28-28s12.5-28 28-28h240c15.5 0 28 12.5 28 28s-12.6 28-28 28zM537 97.9h-75c-15.5 0-28-12.5-28-28s12.5-28 28-28h75c15.5 0 28 12.5 28 28s-12.6 28-28 28z"  horiz-adv-x="1024" />

    
    <glyph glyph-name="baoyu-dadaobaoyu" unicode="&#58891;" d="M798.4 553.7c-15.1 3.3-30.3 6.1-45.5 8.4-22.5 132.7-137.9 233.7-277 233.7-148.9 0-270.7-115.8-280.3-262.2-46.8-30.1-87.5-82.6-87.5-151.5v-7.2c0-97.7 68.1-164 159.7-177.7 91.6-13.7 420-13.7 489.4 0 69.4 13.7 159.7 80 159.7 177.7v7.2c0 97.7-38.2 154.1-118.5 171.6zM649.5 113.7c0-34.4-19.8-44.4-36.9-44.4-16.3 0-36.9 10-36.9 44.4s36.9 62.4 36.9 62.4 36.9-28 36.9-62.4zM829.4 113.7c0-34.4-19.8-44.4-36.9-44.4-16.3 0-36.9 10-36.9 44.4s36.9 62.4 36.9 62.4 36.9-28 36.9-62.4zM289.6 113.7c0-34.4-19.8-44.4-36.9-44.4-16.3 0-36.9 10-36.9 44.4s36.9 62.4 36.9 62.4 36.9-28 36.9-62.4zM469.6 113.7c0-34.4-19.8-44.4-36.9-44.4-16.3 0-36.9 10-36.9 44.4s36.9 62.4 36.9 62.4 36.9-28 36.9-62.4zM383 23.3c0-34.4-19.8-44.4-36.9-44.4-16.3 0-36.9 10-36.9 44.4s36.9 62.4 36.9 62.4 36.9-27.9 36.9-62.4zM564.9 15.6c0-34.4-19.8-44.4-36.9-44.4-16.3 0-36.9 10-36.9 44.4S528 78 528 78s36.9-28 36.9-62.4zM746.7 15.6c0-34.4-19.8-44.4-36.9-44.4-16.3 0-36.9 10-36.9 44.4s36.9 62.4 36.9 62.4 36.9-28 36.9-62.4z"  horiz-adv-x="1024" />

    
    <glyph glyph-name="nongwu-qiangnongwu-dawu-teqiangnongwu" unicode="&#58892;" d="M900 618.2H125c-15.5 0-28 12.5-28 28s12.5 28 28 28h775c15.5 0 28-12.5 28-28s-12.6-28-28-28zM900 443.1H125c-15.5 0-28 12.5-28 28s12.5 28 28 28h775c15.5 0 28-12.5 28-28s-12.6-28-28-28zM900 267.9H125c-15.5 0-28 12.5-28 28s12.5 28 28 28h775c15.5 0 28-12.5 28-28s-12.6-28-28-28zM900 92.8H125c-15.5 0-28 12.5-28 28s12.5 28 28 28h775c15.5 0 28-12.5 28-28s-12.6-28-28-28z"  horiz-adv-x="1024" />

    
    <glyph glyph-name="wu" unicode="&#58893;" d="M900 618.2H125c-15.5 0-28 12.5-28 28s12.5 28 28 28h775c15.5 0 28-12.5 28-28s-12.6-28-28-28zM900 443.1H125c-15.5 0-28 12.5-28 28s12.5 28 28 28h775c15.5 0 28-12.5 28-28s-12.6-28-28-28zM900 267.9H125c-15.5 0-28 12.5-28 28s12.5 28 28 28h775c15.5 0 28-12.5 28-28s-12.6-28-28-28zM900 92.8H125c-15.5 0-28 12.5-28 28s12.5 28 28 28h775c15.5 0 28-12.5 28-28s-12.6-28-28-28z"  horiz-adv-x="1024" />

    
    <glyph glyph-name="duoyun" unicode="&#58894;" d="M819.7 441.1c-16.7 3.6-33.5 6.7-50.4 9.3-24.9 147-152.8 258.9-306.8 258.9-164.9 0-299.8-128.3-310.5-290.5-51.8-33.3-96.9-91.5-96.9-167.8v-8c0-108.2 75.5-181.6 177-196.8 101.5-15.2 465.2-15.2 542.1 0s177 88.6 177 196.8v8c-0.1 108.2-42.4 170.6-131.5 190.1zM363.4 536.5c12.8 2.8 25.6 5.1 38.6 7.1 19 112.5 116.9 198.1 234.8 198.1 126.2 0 229.4-98.2 237.6-222.3 39.6-25.5 74.2-70 74.2-128.4v-6.1c0-82.8-57.8-139-135.4-150.6-77.7-11.6-356-11.6-414.8 0C339.6 245.9 263 302.1 263 384.9V391c-0.1 82.9 32.3 130.7 100.4 145.5z"  horiz-adv-x="1024" />

    
    <glyph glyph-name="shaoyun" unicode="&#58895;" d="M828 452.6c-16.7 3.6-33.5 6.7-50.4 9.3-24.9 147-152.8 258.9-306.8 258.9-164.9 0-299.8-128.3-310.5-290.5-51.8-33.3-96.9-91.5-96.9-167.8v-8c0-108.2 75.5-181.6 177-196.8 101.5-15.2 465.2-15.2 542.1 0s177 88.6 177 196.8v8c-0.1 108.2-42.4 170.6-131.5 190.1z"  horiz-adv-x="1024" />

    
    <glyph glyph-name="leizhenyu" unicode="&#58896;" d="M798.4 546.7c-15.1 3.3-30.3 6.1-45.5 8.4-22.5 132.7-137.9 233.7-277 233.7-148.9 0-270.7-115.8-280.3-262.2-46.8-30.1-87.5-82.6-87.5-151.5v-7.2c0-97.7 68.1-164 159.7-177.7 91.6-13.7 420-13.7 489.4 0s159.7 80 159.7 177.7V375c0 97.7-38.2 154.1-118.5 171.7zM342.5 96.8c0-45.8-26.3-59.1-49.2-59.1-21.6 0-49.2 13.3-49.2 59.1s49.2 83 49.2 83 49.2-37.1 49.2-83zM781 96.8c0-45.8-26.3-59.1-49.2-59.1-21.6 0-49.2 13.3-49.2 59.1s49.2 83 49.2 83 49.2-37.1 49.2-83zM580.1 298.2L444.2 138.4l52.1-28.3L430.8-32 615 112.6l-67.8 26.6z"  horiz-adv-x="1024" />

    
    <glyph glyph-name="leng" unicode="&#58897;" d="M637.2 429.1V681.7c0 60.9-49.6 110.5-110.5 110.5-29.4 0-57.1-11.5-78.1-32.4-20.9-20.9-32.4-48.6-32.4-78.1v-252.6c-79.3-41.1-129.6-123-129.6-213.2 0-64.1 25-124.4 70.3-169.8 45.3-45.3 105.6-70.3 169.8-70.3s124.4 25 169.8 70.3c45.3 45.3 70.3 105.6 70.3 169.8 0 90.2-50.4 172.1-129.6 213.2zM526.7 28.2c-103.5 0-187.7 84.2-187.7 187.7 0 75.2 44.6 142.9 113.7 172.5l15.9 6.8v96.2h116.3v-96.2l15.9-6.8c69.1-29.7 113.7-97.4 113.7-172.5-0.1-103.5-84.3-187.7-187.8-187.7zM356.7 642.8h-50.5c-14.4 0-26.2 11.8-26.2 26.2 0 14.4 11.8 26.2 26.2 26.2h50.5c14.4 0 26.2-11.8 26.2-26.2 0-14.4-11.8-26.2-26.2-26.2zM358.8 559.2h-38.5c-13.2 0-24 10.8-24 24v4.3c0 13.2 10.8 24 24 24h38.5c13.2 0 24-10.8 24-24v-4.3c0.1-13.2-10.8-24-24-24zM356.7 475.5h-50.5c-14.4 0-26.2 11.8-26.2 26.2 0 14.4 11.8 26.2 26.2 26.2h50.5c14.4 0 26.2-11.8 26.2-26.2 0-14.4-11.8-26.2-26.2-26.2z"  horiz-adv-x="1024" />

    
    <glyph glyph-name="yin" unicode="&#58898;" d="M512 379.3m-312.7 0a312.7 312.7 0 1 1 625.4 0 312.7 312.7 0 1 1-625.4 0Z"  horiz-adv-x="1024" />

    
    <glyph glyph-name="xue" unicode="&#58899;" d="M776.5 353.2l-49 28.3 49 28.3c8.8 5.1 11.8 16.4 6.8 25.2-5.1 8.8-16.4 11.8-25.2 6.8l-49-28.3v56.6c0 10.2-8.3 18.5-18.5 18.5s-18.5-8.3-18.5-18.5v-56.6l-49 28.3c-8.8 5.1-20.1 2-25.2-6.8-5.1-8.8-2-20.1 6.8-25.2l49-28.3-49-28.3c-8.8-5.1-11.8-16.4-6.8-25.2 5.1-8.8 16.4-11.8 25.2-6.8l49 28.3V293c0-10.2 8.3-18.5 18.5-18.5s18.5 8.3 18.5 18.5v56.6l49-28.3c8.8-5.1 20.1-2 25.2 6.8 5 8.7 2 20.1-6.8 25.1zM420.3 353.2l-49 28.3 49 28.3c8.8 5.1 11.8 16.4 6.8 25.2-5.1 8.8-16.4 11.8-25.2 6.8l-49-28.3v56.6c0 10.2-8.3 18.5-18.5 18.5s-18.5-8.3-18.5-18.5v-56.6l-49 28.3c-8.8 5.1-20.1 2-25.2-6.8-5.1-8.8-2-20.1 6.8-25.2l49-28.3-49-28.3c-8.8-5.1-11.8-16.4-6.8-25.2 5.1-8.8 16.4-11.8 25.2-6.8l49 28.3V293c0-10.2 8.3-18.5 18.5-18.5s18.5 8.3 18.5 18.5v56.6l49-28.3c8.8-5.1 20.1-2 25.2 6.8 5.1 8.7 2 20.1-6.8 25.1zM588.3 575.5l-49 28.3 49 28.3c8.8 5.1 11.8 16.4 6.8 25.2-5.1 8.8-16.4 11.8-25.2 6.8l-49-28.3v56.6c0 10.2-8.3 18.5-18.5 18.5s-18.5-8.3-18.5-18.5v-56.6l-49 28.3c-8.8 5.1-20.1 2-25.2-6.8-5.1-8.8-2-20.1 6.8-25.2l49-28.3-49-28.3c-8.8-5.1-11.8-16.4-6.8-25.2 5.1-8.8 16.4-11.8 25.2-6.8l49 28.3v-56.6c0-10.2 8.3-18.5 18.5-18.5s18.5 8.3 18.5 18.5v56.6l49-28.3c8.8-5.1 20.1-2 25.2 6.8 5 8.8 2 20.1-6.8 25.2zM588.3 135.9l-49 28.3 49 28.3c8.8 5.1 11.8 16.4 6.8 25.2-5.1 8.8-16.4 11.8-25.2 6.8l-49-28.3v56.6c0 10.2-8.3 18.5-18.5 18.5s-18.5-8.3-18.5-18.5v-56.6l-49 28.3c-8.8 5.1-20.1 2-25.2-6.8-5.1-8.8-2-20.1 6.8-25.2l49-28.3-49-28.3c-8.8-5.1-11.8-16.4-6.8-25.2 5.1-8.8 16.4-11.8 25.2-6.8l49 28.3v-56.6c0-10.2 8.3-18.5 18.5-18.5s18.5 8.3 18.5 18.5v56.6l49-28.3c8.8-5.1 20.1-2 25.2 6.8 5 8.8 2 20.1-6.8 25.2z"  horiz-adv-x="1024" />

    
    <glyph glyph-name="maomaoyuxiyu" unicode="&#58900;" d="M800.1 488.5c-15.1 3.3-30.3 6.1-45.5 8.4-22.5 132.7-137.9 233.7-277 233.7-148.9 0-270.7-115.8-280.3-262.2-46.8-30.1-87.5-82.6-87.5-151.5v-7.2c0-97.7 68.1-164 159.7-177.7 91.6-13.7 420-13.7 489.4 0s159.7 80 159.7 177.7v7.2c0.1 97.7-38.1 154-118.5 171.6zM852.7 103.6c0-13.7-7.8-17.6-14.6-17.6-6.4 0-14.6 4-14.6 17.6s14.6 24.7 14.6 24.7 14.6-11 14.6-24.7zM693.8 49.8c0-13.7-7.8-17.6-14.6-17.6-6.4 0-14.6 4-14.6 17.6s14.6 24.7 14.6 24.7 14.6-11 14.6-24.7zM534.8 32.6c0-13.7-7.8-17.6-14.6-17.6-6.4 0-14.6 4-14.6 17.6 0 13.7 14.6 24.7 14.6 24.7s14.6-11 14.6-24.7zM375.9 49.8c0-13.7-7.8-17.6-14.6-17.6-6.4 0-14.6 4-14.6 17.6s14.6 24.7 14.6 24.7 14.6-11 14.6-24.7zM217 103.6c0-13.7-7.8-17.6-14.6-17.6-6.4 0-14.6 4-14.6 17.6s14.6 24.7 14.6 24.7 14.6-11 14.6-24.7z"  horiz-adv-x="1024" />

    
    <glyph glyph-name="jiduanjiangyu-tedabaoyu-dabaoyudaotedabaoyu" unicode="&#58901;" d="M798.4 538.4c-15.1 3.3-30.3 6.1-45.5 8.4-22.5 132.7-137.9 233.7-277 233.7-148.9 0-270.7-115.8-280.3-262.2-46.8-30.1-87.5-82.6-87.5-151.5v-7.2c0-97.7 68.1-164 159.7-177.7 91.6-13.7 420-13.7 489.4 0s159.7 80 159.7 177.7v7.2c0 97.7-38.2 154.1-118.5 171.6zM176.2 67.5h-3.1c-13.8 0-25 11.3-25 25v69.6c0 13.8 11.3 25 25 25h3.1c13.8 0 25-11.3 25-25v-69.6c0-13.8-11.2-25-25-25zM290.7 37.5h-3.1c-13.8 0-25 11.3-25 25v79.6c0 13.8 11.3 25 25 25h3.1c13.8 0 25-11.3 25-25v-79.6c0-13.8-11.2-25-25-25zM405.2 12.5h-3.1c-13.8 0-25 11.3-25 25v84.6c0 13.8 11.3 25 25 25h3.1c13.8 0 25-11.3 25-25v-84.6c0-13.8-11.2-25-25-25zM519.7-12.5h-3.1c-13.8 0-25 11.3-25 25v89.6c0 13.8 11.3 25 25 25h3.1c13.8 0 25-11.3 25-25v-89.6c0-13.8-11.2-25-25-25zM634.2 12.5h-3.1c-13.8 0-25 11.3-25 25v84.6c0 13.8 11.3 25 25 25h3.1c13.8 0 25-11.3 25-25v-84.6c0-13.8-11.2-25-25-25zM748.7 37.5h-3.1c-13.8 0-25 11.3-25 25v79.6c0 13.8 11.3 25 25 25h3.1c13.8 0 25-11.3 25-25v-79.6c0-13.8-11.2-25-25-25zM863.2 67.5h-3.1c-13.8 0-25 11.3-25 25v69.6c0 13.8 11.3 25 25 25h3.1c13.8 0 25-11.3 25-25v-69.6c0-13.8-11.2-25-25-25z"  horiz-adv-x="1024" />

    
    <glyph glyph-name="qiangleizhenyu" unicode="&#58903;" d="M798.4 541.8c-15.1 3.3-30.3 6.1-45.5 8.4-22.5 132.7-137.9 233.7-277 233.7-148.9 0-270.7-115.8-280.3-262.2-46.8-30.1-87.5-82.6-87.5-151.5v-7.2c0-97.7 68.1-164 159.7-177.7 91.6-13.7 420-13.7 489.4 0s159.7 80 159.7 177.7v7.2c0 97.7-38.2 154-118.5 171.6zM377.1 55.7c0-41-23.5-52.9-44-52.9-19.4 0-44 11.9-44 52.9s44 74.2 44 74.2 44-33.2 44-74.2zM749.3 55.7c0-41-23.5-52.9-44-52.9-19.4 0-44 11.9-44 52.9s44 74.2 44 74.2 44-33.2 44-74.2zM868.8 127.4c0-33.8-19.4-43.5-36.2-43.5-15.9 0-36.2 9.8-36.2 43.5 0 33.8 36.2 61.1 36.2 61.1s36.2-27.4 36.2-61.1zM242.8 127.4c0-33.8-19.4-43.5-36.2-43.5-15.9 0-36.2 9.8-36.2 43.5 0 33.8 36.2 61.1 36.2 61.1s36.2-27.4 36.2-61.1zM580.1 293.3L444.2 133.5l52.1-28.3-65.5-142.1L615 107.7l-67.8 26.6z"  horiz-adv-x="1024" />

    
    <glyph glyph-name="qingjianduoyun" unicode="&#58904;" d="M767.2 562.1m-165.2 0a165.2 165.2 0 1 1 330.4 0 165.2 165.2 0 1 1-330.4 0ZM829.1 459.1c-16.7 3.6-33.5 6.7-50.4 9.3-24.9 147-152.8 258.9-306.8 258.9-164.9 0-299.8-128.3-310.5-290.5-51.8-33.3-96.9-91.5-96.9-167.8v-8c0-108.2 75.5-181.6 177-196.8 101.5-15.2 465.2-15.2 542.1 0s177 88.6 177 196.8v8c-0.1 108.2-42.4 170.6-131.5 190.1z"  horiz-adv-x="1024" />

    
    <glyph glyph-name="weizhi" unicode="&#58905;" d="M505.2 637.3c-86.6 0-157.1-70.5-157.1-157.1 0-15.5 12.5-28 28-28s28 12.5 28 28c0 55.7 45.3 101.1 101.1 101.1S606.3 536 606.3 480.2c0-37.4-20.2-71.1-52.9-88.9-8.1-2.3-25.3-8.2-42.6-21.6-21.1-16.4-46.3-47.2-46.6-100.4-0.1-15.5 12.4-28.1 27.9-28.1h0.1c15.4 0 27.9 12.5 28 27.9 0.1 24 8 42.6 23.4 55.3 11.7 9.7 24 12.9 25.5 13.3l3.3 0.6 3.6 1.8c25.5 12.9 47 32.6 62.2 56.8 15.7 25 23.9 53.8 23.9 83.4 0.2 86.5-70.3 157-156.9 157zM505.2 165.1m-49.1 0a49.1 49.1 0 1 1 98.2 0 49.1 49.1 0 1 1-98.2 0ZM870 536.3c-19.7 46.6-47.9 88.4-83.8 124.4-35.9 35.9-77.8 64.1-124.4 83.8-48.3 20.4-99.5 30.8-152.3 30.8S405.4 765 357.2 744.5c-46.6-19.7-88.4-47.9-124.4-83.8-35.9-35.9-64.1-77.8-83.8-124.4-20.4-48.3-30.8-99.5-30.8-152.3s10.3-104.1 30.8-152.3c19.7-46.6 47.9-88.4 83.8-124.4s77.8-64.1 124.4-83.8c48.3-20.4 99.5-30.8 152.3-30.8s104.1 10.3 152.3 30.8c46.6 19.7 88.4 47.9 124.4 83.8 35.9 35.9 64.1 77.8 83.8 124.4 20.4 48.3 30.8 99.5 30.8 152.3S890.4 488.1 870 536.3zM746.6 146.9c-63.3-63.3-147.5-98.2-237.1-98.2s-173.7 34.9-237.1 98.2c-63.3 63.3-98.2 147.5-98.2 237.1s34.9 173.7 98.2 237.1c63.3 63.3 147.5 98.2 237.1 98.2s173.7-34.9 237.1-98.2c63.3-63.3 98.2-147.5 98.2-237.1s-34.9-173.7-98.2-237.1z"  horiz-adv-x="1024" />

    
    <glyph glyph-name="youfeng" unicode="&#58906;" d="M916.2 524.5c-4.1-2.6-8.6-5.6-13.8-9-24.7-16.6-66.1-44.4-125.2-55.8-72.3-14-153.2 0-240.5 41.4-67.4 32-138 49.6-209.7 52.2-15.5 0.6-28.4-11.5-29-27-0.6-15.5 11.5-28.4 27-29 64.1-2.3 127.2-18.1 187.7-46.8 73-34.7 142.8-52.1 208.4-52.1 22.7 0 45 2.1 66.7 6.3 70.3 13.6 117.6 45.3 145.8 64.3 4.7 3.2 8.8 5.9 12 7.9 13.2 8.1 17.2 25.4 9.1 38.5-8.1 13.2-25.4 17.3-38.5 9.1zM108.1 619.3c0.4 0.3 45.3 25.7 117.8 38.7 42.8 7.7 86.3 9.3 129.2 5 53.7-5.5 106.7-20.5 157.7-44.7 73-34.7 142.8-52.1 208.4-52.1 22.7 0 45 2.1 66.7 6.3 70.3 13.6 117.6 45.3 145.8 64.3 4.7 3.2 8.8 5.9 12 7.9 13.2 8.1 17.2 25.4 9.1 38.5-8.1 13.2-25.4 17.2-38.5 9.1-4.1-2.6-8.6-5.6-13.8-9-24.7-16.6-66.1-44.4-125.2-55.8-72.3-14-153.2 0-240.5 41.4-56.7 26.9-115.9 43.7-176 49.8-48.1 4.9-96.8 3-144.7-5.5-82-14.7-133.7-44.1-135.8-45.3-13.4-7.7-18-24.8-10.3-38.2 7.6-13.5 24.7-18.1 38.1-10.4zM108.1 270c0.4 0.3 45.3 25.7 117.8 38.7 42.8 7.7 86.3 9.3 129.2 5 53.7-5.5 106.7-20.5 157.7-44.7 57.3-27.2 113.1-43.9 165.8-49.7 1-0.1 2.1-0.2 3.1-0.2 14.1 0 26.2 10.6 27.8 24.9 1.7 15.4-9.4 29.2-24.8 30.9-46.6 5.1-96.3 20.1-147.9 44.7-56.7 26.9-115.9 43.7-176 49.8-48.1 4.9-96.8 3-144.7-5.5-82-14.7-133.7-44.1-135.8-45.3-13.4-7.7-18-24.8-10.3-38.2 7.6-13.5 24.7-18.1 38.1-10.4zM916.2 174.1c-4.1-2.6-8.6-5.6-13.8-9-24.7-16.6-66.1-44.4-125.2-55.8-72.3-14-153.2 0-240.5 41.4-56.7 26.9-115.9 43.7-176 49.8-48.1 4.9-96.8 3-144.7-5.5-82-14.7-133.7-44.1-135.8-45.3-13.4-7.7-18-24.9-10.3-38.3 7.7-13.4 24.8-18 38.2-10.3 0.5 0.3 47 26.4 120.1 39.2 42.6 7.4 85.8 8.9 128.4 4.4 53.2-5.6 105.7-20.6 156.2-44.6 73-34.7 142.8-52.1 208.4-52.1 22.7 0 45 2.1 66.7 6.3 70.3 13.6 117.6 45.3 145.8 64.3 4.7 3.2 8.8 5.9 12 7.9 13.2 8.1 17.2 25.4 9.1 38.5-8.2 13.1-25.5 17.2-38.6 9.1z"  horiz-adv-x="1024" />

    
    <glyph glyph-name="weifenghefengqingfeng" unicode="&#58907;" d="M761.8 223.8H96c-15.5 0-28-12.5-28-28s12.5-28 28-28h665.8c31.6 0 57.3-25.7 57.3-57.3s-25.7-57.3-57.3-57.3-57.3 25.7-57.3 57.3c0 15.5-12.5 28-28 28s-28-12.5-28-28c0-62.5 50.8-113.3 113.3-113.3S875.1 48 875.1 110.5s-50.8 113.3-113.3 113.3zM96 397.1h329.4c103 0 186.9 83.8 186.9 186.9s-83.8 186.9-186.9 186.9c-103 0-186.9-83.8-186.9-186.9 0-12.7 1.3-25.3 3.8-37.6 3.1-15.1 17.9-24.9 33-21.8 15.2 3.1 24.9 17.9 21.8 33-1.8 8.6-2.7 17.5-2.7 26.4 0 72.2 58.7 130.9 130.9 130.9S556.2 656.2 556.2 584c0-71.8-58.1-130.2-129.7-130.9H96c-15.5 0-28-12.5-28-28s12.6-28 28-28zM818.6 557.7c-75.7 0-137.2-61.6-137.2-137.2 0-15.5 12.5-28 28-28s28 12.5 28 28c0 44.8 36.4 81.2 81.2 81.2s81.2-36.4 81.2-81.2-36.4-81.2-81.2-81.2H96c-15.5 0-28-12.5-28-28s12.5-28 28-28h725c1 0 2 0.1 3 0.2 73.2 2.9 131.8 63.3 131.8 137.1 0 75.5-61.5 137.1-137.2 137.1z"  horiz-adv-x="1024" />

    
    <glyph glyph-name="qiangzhenyu" unicode="&#58908;" d="M639.3 568.3m-163.7 0a163.7 163.7 0 1 1 327.4 0 163.7 163.7 0 1 1-327.4 0ZM489.3 700.8c6.3-6.3 16.7-6.3 23.1 0l1.8 1.8c6.3 6.3 6.3 16.7 0 23.1l-27.4 27.4c-6.3 6.3-16.7 6.3-23.1 0l-1.8-1.8c-6.3-6.3-6.3-16.7 0-23.1l27.4-27.4zM455.9 572.2v2.6c0 9-7.3 16.3-16.3 16.3h-38.8c-9 0-16.3-7.3-16.3-16.3v-2.6c0-9 7.3-16.3 16.3-16.3h38.8c8.9 0 16.3 7.4 16.3 16.3zM505 443.2c-6.3 6.3-16.7 6.3-23.1 0l-27.4-27.4c-6.3-6.3-6.3-16.7 0-23.1l1.8-1.8c6.3-6.3 16.7-6.3 23.1 0l27.4 27.4c6.3 6.3 6.3 16.7 0 23.1l-1.8 1.8zM635.4 384.9h-2.6c-9 0-16.3-7.3-16.3-16.3v-38.8c0-9 7.3-16.3 16.3-16.3h2.6c9 0 16.3 7.3 16.3 16.3v38.8c0 9-7.3 16.3-16.3 16.3zM789.3 435.9c-6.3 6.3-16.7 6.3-23.1 0l-1.8-1.8c-6.3-6.3-6.3-16.7 0-23.1l27.4-27.4c6.3-6.3 16.7-6.3 23.1 0l1.8 1.8c6.3 6.3 6.3 16.7 0 23.1l-27.4 27.4zM877.8 580.8H839c-9 0-16.3-7.3-16.3-16.3v-2.6c0-9 7.3-16.3 16.3-16.3h38.8c9 0 16.3 7.3 16.3 16.3v2.6c0 8.9-7.3 16.3-16.3 16.3zM773.5 693.5c6.3-6.3 16.7-6.3 23.1 0l27.4 27.4c6.3 6.3 6.3 16.7 0 23.1l-1.8 1.8c-6.3 6.3-16.7 6.3-23.1 0l-27.4-27.4c-6.3-6.3-6.3-16.7 0-23.1l1.8-1.8zM643.2 751.8h2.6c9 0 16.3 7.3 16.3 16.3V806.9c0 9-7.3 16.3-16.3 16.3h-2.6c-9 0-16.3-7.3-16.3-16.3v-38.8c0-9 7.3-16.3 16.3-16.3zM792.9 523.1c-15.1 3.3-30.3 6.1-45.5 8.4-22.5 132.7-137.9 233.7-277 233.7-148.9 0-270.7-115.8-280.3-262.2-46.8-30.1-87.5-82.6-87.5-151.5v-7.2c0-97.7 68.1-164 159.7-177.7 91.6-13.7 420-13.7 489.4 0s159.7 80 159.7 177.7v7.2c0 97.7-38.2 154-118.5 171.6zM467.4 40.3c0-47-26.9-60.6-50.4-60.6-22.2 0-50.4 13.6-50.4 60.6s50.4 85 50.4 85 50.4-38 50.4-85zM666.9 36.6c0-47-27-60.6-50.4-60.6-22.2 0-50.4 13.6-50.4 60.6s50.4 85 50.4 85 50.4-38 50.4-85zM284.6 98.6c0-41.9-24-54-45-54-19.8 0-45 12.1-45 54s45 75.9 45 75.9 45-34 45-75.9zM835.6 98.6c0-41.9-24-54-45-54-19.8 0-45 12.1-45 54s45 75.9 45 75.9 45-34 45-75.9z"  horiz-adv-x="1024" />

    
    <glyph glyph-name="zhongyu-xiaodaozhongyu" unicode="&#58909;" d="M798.4 528.7c-15.1 3.3-30.3 6.1-45.5 8.4-22.5 132.7-137.9 233.7-277 233.7-148.9 0-270.7-115.8-280.3-262.2-46.8-30.1-87.5-82.6-87.5-151.5v-7.2c0-97.7 68.1-164 159.7-177.7 91.6-13.7 420-13.7 489.4 0s159.7 80 159.7 177.7V357c0 97.8-38.2 154.1-118.5 171.7zM576.5 47c0-47-26.9-60.6-50.4-60.6-22.2 0-50.4 13.6-50.4 60.6s50.4 85 50.4 85 50.4-38 50.4-85zM774.1 83.6c0-40-23-51.6-42.9-51.6-18.9 0-42.9 11.6-42.9 51.6s42.9 72.4 42.9 72.4 42.9-32.4 42.9-72.4zM364.1 83.6c0-40-23-51.6-42.9-51.6-18.9 0-42.9 11.6-42.9 51.6s42.9 72.4 42.9 72.4 42.9-32.4 42.9-72.4z"  horiz-adv-x="1024" />

    
    <glyph glyph-name="yanzhongmai" unicode="&#58910;" d="M861.7 520.1c-41.9 33.6-97.2 52.1-155.7 52.1s-113.9-18.5-155.7-52.1c-15.9-12.8-29.2-27.2-39.7-42.8-10.5 15.6-23.8 30-39.7 42.8-41.9 33.6-97.2 52.1-155.7 52.1s-113.9-18.5-155.7-52.1c-43.7-35.1-67.7-82.2-67.7-132.8s24-97.8 67.7-132.8c41.9-33.6 97.2-52.1 155.7-52.1s113.9 18.5 155.7 52.1c15.9 12.8 29.2 27.2 39.7 42.8 10.5-15.6 23.8-30 39.7-42.8 41.9-33.6 97.2-52.1 155.7-52.1s113.9 18.5 155.7 52.1c43.7 35.1 67.7 82.2 67.7 132.8s-24.1 97.7-67.7 132.8z m-426-222c-32-25.7-74.8-39.8-120.7-39.8s-88.7 14.1-120.7 39.8c-30.2 24.2-46.8 55.9-46.8 89.2s16.6 64.9 46.8 89.2c32 25.7 74.8 39.8 120.7 39.8s88.7-14.1 120.7-39.8c30.2-24.2 46.8-55.9 46.8-89.2s-16.6-65-46.8-89.2z m390.9 0c-32-25.7-74.8-39.8-120.7-39.8s-88.7 14.1-120.7 39.8c-30.2 24.2-46.8 55.9-46.8 89.2s16.6 64.9 46.8 89.2c32 25.7 74.8 39.8 120.7 39.8s88.7-14.1 120.7-39.8c30.2-24.2 46.8-55.9 46.8-89.2s-16.6-65-46.8-89.2zM309.5 681.1m-57 0a57 57 0 1 1 114 0 57 57 0 1 1-114 0ZM705 681.1m-57 0a57 57 0 1 1 114 0 57 57 0 1 1-114 0ZM505.4 605.4m-51.2 0a51.2 51.2 0 1 1 102.4 0 51.2 51.2 0 1 1-102.4 0ZM505.4 170.3m-51.2 0a51.2 51.2 0 1 1 102.4 0 51.2 51.2 0 1 1-102.4 0ZM135.7 605.4m-51.2 0a51.2 51.2 0 1 1 102.4 0 51.2 51.2 0 1 1-102.4 0ZM135.7 170.3m-51.2 0a51.2 51.2 0 1 1 102.4 0 51.2 51.2 0 1 1-102.4 0ZM884.4 605.4m-51.2 0a51.2 51.2 0 1 1 102.4 0 51.2 51.2 0 1 1-102.4 0ZM884.4 170.3m-51.2 0a51.2 51.2 0 1 1 102.4 0 51.2 51.2 0 1 1-102.4 0ZM309.5 93.4m-57 0a57 57 0 1 1 114 0 57 57 0 1 1-114 0ZM705 93.4m-57 0a57 57 0 1 1 114 0 57 57 0 1 1-114 0Z"  horiz-adv-x="1024" />

    
    <glyph glyph-name="yujiaxue-zhenyujiaxue" unicode="&#58911;" d="M792.9 546.6c-15.1 3.3-30.3 6.1-45.5 8.4-22.5 132.7-137.9 233.7-277 233.7-148.9 0-270.7-115.8-280.3-262.2-46.8-30.1-87.5-82.6-87.5-151.5v-7.2c0-97.7 68.1-164 159.7-177.7 91.6-13.7 420-13.7 489.4 0s159.7 80 159.7 177.7V375c0 97.6-38.2 154-118.5 171.6zM564.3 39.9c0-47-26.9-60.6-50.4-60.6-22.2 0-50.4 13.6-50.4 60.6s50.4 85 50.4 85 50.4-38 50.4-85zM874.7 146c0-27.3-15.7-35.2-29.3-35.2-12.9 0-29.3 7.9-29.3 35.2 0 27.3 29.3 49.4 29.3 49.4s29.3-22.1 29.3-49.4zM211.7 146c0-27.3-15.7-35.2-29.3-35.2-12.9 0-29.3 7.9-29.3 35.2 0 27.3 29.3 49.4 29.3 49.4s29.3-22.1 29.3-49.4zM381.5 59.5l-28.1 16.2 28.1 16.2c5.1 2.9 6.8 9.4 3.9 14.5s-9.4 6.8-14.5 3.9l-28.1-16.2v32.5c0 5.8-4.8 10.6-10.6 10.6s-10.6-4.8-10.6-10.6v-32.5l-28.1 16.2c-5.1 2.9-11.6 1.2-14.5-3.9-2.9-5.1-1.2-11.6 3.9-14.5l28.1-16.2-28.1-16.2c-5.1-2.9-6.8-9.4-3.9-14.5s9.4-6.8 14.5-3.9l28.1 16.2v-32.5c0-5.8 4.8-10.6 10.6-10.6s10.6 4.8 10.6 10.6v32.5l28.1-16.2c5.1-2.9 11.6-1.2 14.5 3.9 2.9 5 1.2 11.6-3.9 14.5zM747.2 59.5l-28.1 16.2 28.1 16.2c5.1 2.9 6.8 9.4 3.9 14.5s-9.4 6.8-14.5 3.9l-28.1-16.2v32.5c0 5.8-4.8 10.6-10.6 10.6s-10.6-4.8-10.6-10.6v-32.5l-28.1 16.2c-5.1 2.9-11.6 1.2-14.5-3.9-2.9-5.1-1.2-11.6 3.9-14.5l28.1-16.2-28.1-16.2c-5.1-2.9-6.8-9.4-3.9-14.5s9.4-6.8 14.5-3.9l28.1 16.2v-32.5c0-5.8 4.8-10.6 10.6-10.6s10.6 4.8 10.6 10.6v32.5l28.1-16.2c5.1-2.9 11.6-1.2 14.5 3.9 2.9 5 1.2 11.6-3.9 14.5z"  horiz-adv-x="1024" />

    
    <glyph glyph-name="xiaoxue" unicode="&#58912;" d="M806.7 534.4c-15.1 3.3-30.3 6.1-45.5 8.4-22.5 132.7-137.9 233.7-277 233.7-148.9 0-270.7-115.8-280.3-262.2-46.8-30.1-87.5-82.6-87.5-151.5v-7.2c0-97.7 68.1-164 159.7-177.7 91.6-13.7 420-13.7 489.4 0s159.7 80 159.7 177.7v7.2c0.1 97.7-38.1 154.1-118.5 171.6zM565.6 59.9l-28.5 16.5 28.5 16.5c5.1 3 6.9 9.6 3.9 14.7-3 5.1-9.6 6.9-14.7 3.9L526.4 95v32.9c0 5.9-4.8 10.7-10.7 10.7-5.9 0-10.7-4.8-10.7-10.7V95l-28.5 16.5c-5.1 3-11.7 1.2-14.7-3.9s-1.2-11.7 3.9-14.7l28.5-16.5-28.5-16.5c-5.1-3-6.9-9.6-3.9-14.7 3-5.1 9.6-6.9 14.7-3.9l28.5 16.5v-32.9c0-5.9 4.8-10.7 10.7-10.7 5.9 0 10.7 4.8 10.7 10.7v32.9l28.5-16.5c5.1-3 11.7-1.2 14.7 3.9 2.9 5.2 1.1 11.8-4 14.7z"  horiz-adv-x="1024" />

    
    <glyph glyph-name="xiaoyu" unicode="&#58913;" d="M798.4 533.3c-15.1 3.3-30.3 6.1-45.5 8.4-22.5 132.7-137.9 233.7-277 233.7-148.9 0-270.7-115.8-280.3-262.2-46.8-30.1-87.5-82.6-87.5-151.5v-7.2c0-97.7 68.1-164 159.7-177.7 91.6-13.7 420-13.7 489.4 0s159.7 80 159.7 177.7v7.2c0 97.7-38.2 154.1-118.5 171.6zM573 51.7c0-47-26.9-60.6-50.4-60.6-22.2 0-50.4 13.6-50.4 60.6s50.4 85 50.4 85 50.4-38.1 50.4-85z"  horiz-adv-x="1024" />

    
    <glyph glyph-name="qing" unicode="&#58914;" d="M511.5 380.8m-263.4 0a263.4 263.4 0 1 1 526.8 0 263.4 263.4 0 1 1-526.8 0ZM270.1 594c10.2-10.2 26.9-10.2 37.1 0l2.9 2.9c10.2 10.2 10.2 26.9 0 37.1l-44.2 44.2c-10.2 10.2-26.9 10.2-37.1 0l-2.9-2.9c-10.2-10.2-10.2-26.9 0-37.1l44.2-44.2zM216.3 387.1v4.1c0 14.4-11.8 26.2-26.2 26.2h-62.5c-14.4 0-26.2-11.8-26.2-26.2v-4.1c0-14.4 11.8-26.2 26.2-26.2h62.5c14.4-0.1 26.2 11.7 26.2 26.2zM295.5 179.5c-10.2 10.2-26.9 10.2-37.1 0l-44.2-44.2c-10.2-10.2-10.2-26.9 0-37.1l2.9-2.9c10.2-10.2 26.9-10.2 37.1 0l44.2 44.2c10.2 10.2 10.2 26.9 0 37.1l-2.9 2.9zM505.3 85.7h-4.1c-14.4 0-26.2-11.8-26.2-26.2V-3c0-14.4 11.8-26.2 26.2-26.2h4.1c14.4 0 26.2 11.8 26.2 26.2v62.5c0 14.4-11.8 26.2-26.2 26.2zM752.9 167.7c-10.2 10.2-26.9 10.2-37.1 0l-2.9-2.9c-10.2-10.2-10.2-26.9 0-37.1l44.2-44.2c10.2-10.2 26.9-10.2 37.1 0l2.9 2.9c10.2 10.2 10.2 26.9 0 37.1l-44.2 44.2zM895.3 400.8h-62.5c-14.4 0-26.2-11.8-26.2-26.2v-4.1c0-14.4 11.8-26.2 26.2-26.2h62.5c14.4 0 26.2 11.8 26.2 26.2v4.1c0.1 14.4-11.7 26.2-26.2 26.2zM727.5 582.2c10.2-10.2 26.9-10.2 37.1 0l44.2 44.2c10.2 10.2 10.2 26.9 0 37.1l-2.9 2.9c-10.2 10.2-26.9 10.2-37.1 0l-44.2-44.2c-10.2-10.2-10.2-26.9 0-37.1l2.9-2.9zM517.7 676h4.1c14.4 0 26.2 11.8 26.2 26.2v62.5c0 14.4-11.8 26.2-26.2 26.2h-4.1c-14.4 0-26.2-11.8-26.2-26.2v-62.5c0-14.4 11.8-26.2 26.2-26.2z"  horiz-adv-x="1024" />

    
    <glyph glyph-name="yuxuetianqi" unicode="&#58915;" d="M518.5 565.8c0-102.3-58.7-132-109.8-132-48.3 0-109.8 29.6-109.8 132s109.8 185.3 109.8 185.3 109.8-83 109.8-185.3zM742 109.7l-65.1 37.6 65.1 37.6c11.7 6.7 15.7 21.8 9 33.5-6.7 11.7-21.8 15.7-33.5 9l-65.1-37.6v75.1c0 13.5-11 24.5-24.5 24.5s-24.5-11-24.5-24.5v-75.1l-65.1 37.6c-11.7 6.7-26.8 2.7-33.5-9-6.7-11.7-2.7-26.8 9-33.5l65.1-37.6-65.1-37.6c-11.7-6.7-15.7-21.8-9-33.5 6.7-11.7 21.8-15.7 33.5-9l65.1 37.6v-75.1c0-13.5 11-24.5 24.5-24.5s24.5 11 24.5 24.5v75.1l65.1-37.6c11.7-6.7 26.8-2.7 33.5 9 6.7 11.7 2.6 26.7-9 33.5zM285 83.6c-6.9 0-13.7 2.5-19.1 7.6-11.3 10.6-11.9 28.3-1.3 39.6l474 505.7c10.6 11.3 28.3 11.9 39.6 1.3s11.9-28.3 1.3-39.6l-474-505.7c-5.6-5.9-13-8.9-20.5-8.9z"  horiz-adv-x="1024" />

    
    <glyph glyph-name="baowu" unicode="&#58916;" d="M435.9 383.5m-214.2 0a214.2 214.2 0 1 1 428.4 0 214.2 214.2 0 1 1-428.4 0ZM239.6 556.8c8.3-8.3 21.9-8.3 30.2 0l2.4 2.4c8.3 8.3 8.3 21.9 0 30.2l-35.9 35.9c-8.3 8.3-21.9 8.3-30.2 0l-2.4-2.4c-8.3-8.3-8.3-21.9 0-30.2l35.9-35.9zM195.9 388.6V392c0 11.7-9.6 21.3-21.3 21.3h-50.8c-11.7 0-21.3-9.6-21.3-21.3v-3.4c0-11.7 9.6-21.3 21.3-21.3h50.8c11.7-0.1 21.3 9.5 21.3 21.3zM260.2 219.7c-8.3 8.3-21.9 8.3-30.2 0l-35.9-35.9c-8.3-8.3-8.3-21.9 0-30.2l2.4-2.4c8.3-8.3 21.9-8.3 30.2 0l35.9 35.9c8.3 8.3 8.3 21.9 0 30.2l-2.4 2.4zM430.8 143.5h-3.4c-11.7 0-21.3-9.6-21.3-21.3v-50.8c0-11.7 9.6-21.3 21.3-21.3h3.4c11.7 0 21.3 9.6 21.3 21.3v50.8c0.1 11.7-9.5 21.3-21.3 21.3zM632.2 210.2c-8.3 8.3-21.9 8.3-30.2 0l-2.4-2.4c-8.3-8.3-8.3-21.9 0-30.2l35.9-35.9c8.3-8.3 21.9-8.3 30.2 0l2.4 2.4c8.3 8.3 8.3 21.9 0 30.2l-35.9 35.9zM748 399.8h-50.8c-11.7 0-21.3-9.6-21.3-21.3v-3.4c0-11.7 9.6-21.3 21.3-21.3H748c11.7 0 21.3 9.6 21.3 21.3v3.4c0.1 11.7-9.5 21.3-21.3 21.3zM611.6 547.3c8.3-8.3 21.9-8.3 30.2 0l35.9 35.9c8.3 8.3 8.3 21.9 0 30.2l-2.4 2.4c-8.3 8.3-21.9 8.3-30.2 0l-35.9-35.9c-8.3-8.3-8.3-21.9 0-30.2l2.4-2.4zM441 623.5h3.4c11.7 0 21.3 9.6 21.3 21.3v50.8c0 11.7-9.6 21.3-21.3 21.3H441c-11.7 0-21.3-9.6-21.3-21.3v-50.8c0-11.7 9.5-21.3 21.3-21.3zM594.8 522.6H98c-9.3 0-16.8 12.5-16.8 28s7.5 28 16.8 28h496.8c9.3 0 16.8-12.5 16.8-28s-7.5-28-16.8-28zM942.8 347.5H221.2c-13.4 0-24.3 12.5-24.3 28s10.9 28 24.3 28h721.6c13.4 0 24.3-12.5 24.3-28 0.1-15.5-10.8-28-24.3-28zM808.8 172.3H105c-13.1 0-23.7 12.5-23.7 28s10.6 28 23.7 28h703.8c13.1 0 23.7-12.5 23.7-28s-10.5-28-23.7-28z"  horiz-adv-x="1024" />

    
    <glyph glyph-name="zhongdumai" unicode="&#58917;" d="M858.7 514.3c-41.9 33.6-97.2 52.1-155.7 52.1s-113.9-18.5-155.7-52.1c-15.9-12.8-29.2-27.2-39.7-42.8-10.5 15.6-23.8 30-39.7 42.8-41.9 33.6-97.2 52.1-155.7 52.1s-113.9-18.5-155.7-52.1c-43.7-35.1-67.7-82.2-67.7-132.8s24-97.8 67.7-132.8c41.9-33.6 97.2-52.1 155.7-52.1s113.9 18.5 155.7 52.1c15.9 12.8 29.2 27.2 39.7 42.8 10.5-15.6 23.8-30 39.7-42.8 41.9-33.6 97.2-52.1 155.7-52.1s113.9 18.5 155.7 52.1c43.7 35.1 67.7 82.2 67.7 132.8s-24 97.7-67.7 132.8z m-426-222c-32-25.7-74.8-39.8-120.7-39.8s-88.7 14.1-120.7 39.8c-30.2 24.2-46.8 55.9-46.8 89.2s16.6 64.9 46.8 89.2c32 25.7 74.8 39.8 120.7 39.8s88.7-14.1 120.7-39.8c30.2-24.2 46.8-55.9 46.8-89.2s-16.6-65-46.8-89.2z m390.9 0c-32-25.7-74.8-39.8-120.7-39.8s-88.7 14.1-120.7 39.8c-30.2 24.2-46.8 55.9-46.8 89.2s16.6 64.9 46.8 89.2c32 25.7 74.8 39.8 120.7 39.8s88.7-14.1 120.7-39.8c30.2-24.2 46.8-55.9 46.8-89.2s-16.6-65-46.8-89.2zM306.5 675.3m-57 0a57 57 0 1 1 114 0 57 57 0 1 1-114 0ZM712 675.3m-57 0a57 57 0 1 1 114 0 57 57 0 1 1-114 0ZM505.9 599.6m-51.2 0a51.2 51.2 0 1 1 102.4 0 51.2 51.2 0 1 1-102.4 0ZM505.9 164.5m-51.2 0a51.2 51.2 0 1 1 102.4 0 51.2 51.2 0 1 1-102.4 0ZM306.5 87.6m-57 0a57 57 0 1 1 114 0 57 57 0 1 1-114 0ZM712 87.6m-57 0a57 57 0 1 1 114 0 57 57 0 1 1-114 0Z"  horiz-adv-x="1024" />

    
    <glyph glyph-name="zhongdumai1" unicode="&#58918;" d="M860.2 523.7c-41.9 33.6-97.2 52.1-155.7 52.1s-113.9-18.5-155.7-52.1c-15.9-12.8-29.2-27.2-39.7-42.8-10.5 15.6-23.8 30-39.7 42.8-41.9 33.6-97.2 52.1-155.7 52.1S199.8 557.3 158 523.7c-43.7-35.1-67.7-82.2-67.7-132.8s24-97.8 67.7-132.8c41.9-33.6 97.2-52.1 155.7-52.1s113.9 18.5 155.7 52.1c15.9 12.8 29.2 27.2 39.7 42.8 10.5-15.6 23.8-30 39.7-42.8C590.7 224.5 646 206 704.5 206s113.9 18.5 155.7 52.1c43.7 35.1 67.7 82.2 67.7 132.8s-24 97.7-67.7 132.8z m-425.9-222c-32-25.7-74.8-39.8-120.7-39.8s-88.7 14.1-120.7 39.8c-30.2 24.2-46.8 55.9-46.8 89.2s16.6 64.9 46.8 89.2c32 25.7 74.8 39.8 120.7 39.8s88.7-14.1 120.7-39.8c30.2-24.2 46.8-55.9 46.8-89.2s-16.7-65-46.8-89.2z m390.9 0c-32-25.7-74.8-39.8-120.7-39.8s-88.7 14.1-120.7 39.8c-30.2 24.2-46.8 55.9-46.8 89.2s16.6 64.9 46.8 89.2c32 25.7 74.8 39.8 120.7 39.8s88.7-14.1 120.7-39.8c30.2-24.2 46.8-55.9 46.8-89.2s-16.7-65-46.8-89.2zM308 684.7m-57 0a57 57 0 1 1 114 0 57 57 0 1 1-114 0ZM718.5 684.7m-57 0a57 57 0 1 1 114 0 57 57 0 1 1-114 0ZM308 97m-57 0a57 57 0 1 1 114 0 57 57 0 1 1-114 0ZM718.5 97m-57 0a57 57 0 1 1 114 0 57 57 0 1 1-114 0Z"  horiz-adv-x="1024" />

    
    <glyph glyph-name="yangsha" unicode="&#58919;" d="M805.9 263.4c5.4 26.9 2.1 54.2-8.5 80.3 29 27.7 48.9 61.3 56.6 99.4 19.4 96-43.4 195.3-151.4 259.8 53.9-56.8 80.5-125.3 66.9-192.2-27.3-134.9-207.2-212.3-401.8-172.9-72.2 14.6-136.2 43.2-186.8 80.2 54.7-69.8 148.8-126.4 262.4-149.4 112.7-22.8 220.5-7.7 297.9 34.5-26.7-93.1-155-145.3-293.5-117.3-53.1 10.8-100.3 31.8-137.6 59.1 40.3-51.4 109.6-93.1 193.3-110 88.9-18 173.7-3.9 231.2 32.3-20.6-75.2-123.8-117.6-235.2-95-42.5 8.6-80.3 25.5-110.1 47.3C421.5 78.4 477 45 544 31.4c117.4-23.8 225.8 22.3 242.1 102.8 4.7 23.4 1.2 47.1-9.1 69.6 14.4 17.5 24.4 37.5 28.9 59.6zM335.91876 591.758196a35.6 35.6 0 1 1 14.125579 69.784727 35.6 35.6 0 1 1-14.125579-69.784727ZM539.153074 634.44024a35.6 35.6 0 1 1 14.12558 69.784726 35.6 35.6 0 1 1-14.12558-69.784726ZM663.456169 489.118456a35.6 35.6 0 1 1 14.12558 69.784726 35.6 35.6 0 1 1-14.12558-69.784726ZM470.570083 475.003444a35.6 35.6 0 1 1 14.125579 69.784726 35.6 35.6 0 1 1-14.125579-69.784726ZM300.879649 418.754017a35.6 35.6 0 1 1 14.12558 69.784726 35.6 35.6 0 1 1-14.12558-69.784726ZM439.301458 199.740164a24 24 0 1 1 9.522863 47.045883 24 24 0 1 1-9.522863-47.045883ZM587.646393 203.693492a24 24 0 1 1 9.522862 47.045883 24 24 0 1 1-9.522862-47.045883ZM524.640623 71.506546a24 24 0 1 1 9.522863 47.045883 24 24 0 1 1-9.522863-47.045883ZM588.056463 384.756097a35.6 35.6 0 1 1 14.125579 69.784726 35.6 35.6 0 1 1-14.125579-69.784726Z"  horiz-adv-x="1024" />

    
    <glyph glyph-name="qiangshachenbao" unicode="&#58920;" d="M535.510539 728.004455a21.5 21.5 0 1 1 8.530898 42.14527 21.5 21.5 0 1 1-8.530898-42.14527ZM818.077407 672.550965a21.5 21.5 0 1 1 8.530898 42.14527 21.5 21.5 0 1 1-8.530898-42.14527ZM413.773914 533.053236a21.5 21.5 0 1 1 8.530898 42.14527 21.5 21.5 0 1 1-8.530898-42.14527ZM464.780775 445.358847a21.5 21.5 0 1 1 8.530898 42.14527 21.5 21.5 0 1 1-8.530898-42.14527ZM581.300111 537.781205a21.5 21.5 0 1 1 8.530898 42.14527 21.5 21.5 0 1 1-8.530898-42.14527ZM874.112314 427.268285a21.5 21.5 0 1 1 8.530898 42.14527 21.5 21.5 0 1 1-8.530898-42.14527ZM753.457569 42.87749a21.5 21.5 0 1 1 8.530898 42.14527 21.5 21.5 0 1 1-8.530898-42.14527ZM650.079812 581.048025a21.5 21.5 0 1 1 8.530898 42.14527 21.5 21.5 0 1 1-8.530898-42.14527ZM311.07384 706.533326a21.5 21.5 0 1 1 8.530898 42.14527 21.5 21.5 0 1 1-8.530898-42.14527ZM381.490708 602.566972a21.5 21.5 0 1 1 8.530898 42.14527 21.5 21.5 0 1 1-8.530898-42.14527ZM135.763773 448.831636a21.5 21.5 0 1 1 8.530898 42.14527 21.5 21.5 0 1 1-8.530898-42.14527ZM178.690705 276.848976a21.5 21.5 0 1 1 8.530898 42.14527 21.5 21.5 0 1 1-8.530898-42.14527ZM279.785993 150.500737a21.5 21.5 0 1 1 8.530898 42.14527 21.5 21.5 0 1 1-8.530898-42.14527ZM221.717609 56.44808a21.5 21.5 0 1 1 8.530898 42.14527 21.5 21.5 0 1 1-8.530898-42.14527ZM279.778331 266.296106a21.5 21.5 0 1 1 8.530897 42.14527 21.5 21.5 0 1 1-8.530897-42.14527ZM370.786838 375.383435a21.5 21.5 0 1 1 8.530897 42.14527 21.5 21.5 0 1 1-8.530897-42.14527ZM586.797174 448.796796a21.5 21.5 0 1 1 8.530898 42.14527 21.5 21.5 0 1 1-8.530898-42.14527ZM685.247209 363.063889a21.5 21.5 0 1 1 8.530897 42.14527 21.5 21.5 0 1 1-8.530897-42.14527ZM796.563419 282.746068a21.5 21.5 0 1 1 8.530898 42.14527 21.5 21.5 0 1 1-8.530898-42.14527ZM770.96056 144.399565a21.5 21.5 0 1 1 8.530897 42.14527 21.5 21.5 0 1 1-8.530897-42.14527ZM621.680553 13.473388a21.5 21.5 0 1 1 8.530898 42.14527 21.5 21.5 0 1 1-8.530898-42.14527ZM392.303853 21.28263a21.5 21.5 0 1 1 8.530898 42.14527 21.5 21.5 0 1 1-8.530898-42.14527ZM520.8 408.6c-82.5 0-156.8 10.8-214.6 31.1-55.5 19.5-93 46.5-108.5 78.1-12.9 26.2-9.3 54.5 10.1 79.5 28.2 36.4 84 58.5 125.9 70.6 55.6 16.1 122 24.9 187.1 24.9s131.6-8.8 187.1-24.9c41.9-12.1 97.7-34.2 125.9-70.6 19.4-25.1 23-53.3 10.1-79.5-15.5-31.6-53-58.6-108.5-78.1-57.9-20.4-132.1-31.1-214.6-31.1z m0 260.2c-131.7 0-255.3-36.3-294-86.2-13.9-17.9-16.4-36.2-7.6-54.3 12.5-25.5 46.2-48.9 94.9-66 55.3-19.5 126.8-29.8 206.7-29.8s151.3 10.3 206.7 29.8c48.7 17.1 82.4 40.6 94.9 66 8.9 18.1 6.3 36.3-7.6 54.3-38.7 50-162.3 86.2-294 86.2zM511.6 355.7c-75 0-142.5 9.8-195.1 28.3-50.6 17.8-84.9 42.5-99.1 71.4-11.9 24.2-8.6 50.2 9.3 73.3 25.8 33.3 76.6 53.4 114.8 64.5 50.5 14.6 110.9 22.6 170.1 22.6s119.6-8 170.1-22.6c38.1-11 89-31.2 114.8-64.5 17.9-23.1 21.2-49.1 9.3-73.3-14.2-28.9-48.4-53.6-99.1-71.4-52.7-18.5-120.1-28.3-195.1-28.3z m0 236.2c-119.2 0-231-32.7-265.9-77.8-12.3-15.9-14.6-32.1-6.7-48.1 11.2-22.8 41.6-43.9 85.5-59.4 50.1-17.6 114.8-26.9 187.1-26.9s137 9.3 187.1 26.9c43.9 15.5 74.3 36.5 85.5 59.4 7.8 16 5.6 32.2-6.7 48.1-35 45.1-146.8 77.8-265.9 77.8zM543.7 286.9c-138.5 0-245.9 36.5-273.6 93-11.2 22.8-8.1 47.2 8.7 68.9 24.1 31.1 71.4 49.8 106.9 60.1 46.9 13.6 103 21 158 21s111-7.5 158-21c35.5-10.3 82.8-29 106.9-60.1 16.8-21.7 19.9-46.2 8.7-68.9-27.7-56.5-135.1-93-273.6-93z m0 219c-110.2 0-213.6-30.2-245.9-71.8-11.2-14.5-13.3-29.2-6.2-43.7 10.3-21 38.3-40.4 78.8-54.6 46.4-16.3 106.3-24.9 173.2-24.9s126.9 8.6 173.2 24.9c40.5 14.3 68.5 33.6 78.8 54.6 7.1 14.5 5 29.2-6.2 43.7-32 41.6-135.4 71.8-245.7 71.8zM597.7 203.3c-119 0-211.4 31.6-235.4 80.4-9.8 20.1-7.1 41.6 7.7 60.7 20.8 26.9 61.7 43.1 92.2 51.9 40.2 11.6 88.3 18 135.5 18s95.2-6.4 135.5-18c30.6-8.8 71.4-25 92.2-51.9 14.8-19.1 17.5-40.7 7.7-60.7-24-48.8-116.4-80.4-235.4-80.4z m0 187.1c-93.7 0-181.5-25.5-208.7-60.7-9.3-12-10.9-23.6-5.1-35.5 5-10.1 20.2-29.6 66.3-45.8 39.4-13.9 90.4-21.2 147.5-21.2s108 7.3 147.5 21.2c46.1 16.2 61.4 35.7 66.3 45.8 5.8 11.9 4.2 23.5-5.1 35.5-27.2 35.2-115 60.7-208.7 60.7zM632.8 147.1c-116.4 0-206.8 30.9-230.3 78.8-9.7 19.7-7 40.9 7.5 59.7 20.4 26.4 60.4 42.2 90.3 50.9 39.4 11.4 86.4 17.6 132.5 17.6s93.1-6.3 132.5-17.6c29.9-8.7 69.9-24.5 90.3-50.9 14.5-18.7 17.2-39.9 7.5-59.7-23.5-47.9-113.9-78.8-230.3-78.8z m0 182.9c-91.5 0-177.3-24.9-203.8-59.2-9-11.6-10.6-22.9-4.9-34.4 4.8-9.9 19.7-28.8 64.7-44.6 38.5-13.5 88.3-20.7 144.1-20.7 55.7 0 105.6 7.2 144.1 20.7 45 15.8 59.9 34.8 64.7 44.6 5.7 11.5 4 22.8-4.9 34.4-26.8 34.3-112.5 59.2-204 59.2zM619.5 96.1c-50.8 0-96.6 6.6-132.3 19.2-35 12.3-58.8 29.6-68.8 50-8.7 17.7-6.3 36.6 6.7 53.4 18 23.2 52.9 37.1 79.1 44.7 34.3 9.9 75.2 15.4 115.3 15.4 40.1 0 81.1-5.5 115.3-15.4 26.2-7.6 61.1-21.5 79.1-44.7 13-16.8 15.3-35.7 6.7-53.4-10-20.4-33.8-37.6-68.8-50-35.8-12.6-81.5-19.2-132.3-19.2z m0 158.6c-37.9 0-76.5-5.1-108.6-14.4C478.7 231 455 218.1 444 204c-7.4-9.5-8.7-18.7-4.1-28.1 13.2-26.9 75-55.8 179.5-55.8 48.1 0 91.1 6.2 124.4 17.9 28.1 9.9 48.2 23.7 55.2 37.9 4.6 9.4 3.3 18.6-4.1 28.1-10.9 14.1-34.6 27-66.8 36.3-32.1 9.3-70.7 14.4-108.6 14.4zM542.9 59.3c-44.1 0-83.8 5.8-114.9 16.7-30.7 10.8-51.5 26-60.3 44-7.8 15.9-5.7 32.9 5.9 47.9 15.8 20.4 46.3 32.6 69.2 39.2 29.7 8.6 65.3 13.3 100.1 13.3s70.4-4.7 100.1-13.3c22.8-6.6 53.4-18.8 69.2-39.2 11.6-15 13.7-32 5.9-47.9-8.8-18-29.7-33.2-60.3-44-31.1-10.9-70.8-16.7-114.9-16.7z m0 137c-66.6 0-131.3-18.6-150.3-43.2-6-7.8-7.1-15-3.4-22.6 11.2-22.8 64-47.3 153.7-47.3s142.5 24.5 153.7 47.3c3.7 7.6 2.7 14.8-3.4 22.6-19.1 24.7-83.7 43.2-150.3 43.2zM539.7 21.2c-37.1 0-70.6 4.9-96.9 14.1-26.2 9.2-44 22.3-51.6 37.8-6.9 14-5 28.9 5.2 42.1 13.5 17.5 39.5 27.9 58.9 33.5 25.1 7.3 55 11.2 84.4 11.2 29.3 0 59.3-4 84.4-11.2 19.4-5.6 45.4-16 58.9-33.5 10.2-13.2 12-28.1 5.2-42.1-7.6-15.5-25.5-28.6-51.6-37.8-26.2-9.2-59.7-14.1-96.9-14.1z m0 114.7c-55.2 0-108.7-15.2-124.3-35.4-6-7.7-4.4-13.3-2.6-16.9 4.7-9.5 18.5-18.9 38.1-25.7 23.7-8.3 54.4-12.7 88.9-12.7s65.2 4.4 88.9 12.7c19.5 6.9 33.4 16.3 38.1 25.7 1.7 3.5 3.4 9.1-2.6 16.9-15.8 20.2-69.2 35.4-124.5 35.4zM585.5-12c-57.3 0-100.5 15.4-112.6 40.1-5.5 11.3-4 23.9 4.2 34.4 18.3 23.7 67.7 34.3 108.4 34.3s90.1-10.6 108.4-34.3c8.2-10.6 9.7-23.1 4.2-34.4C686 3.4 642.9-12 585.5-12z m0 84.9c-40 0-78.4-10.7-89.5-25-3.3-4.2-2.7-6.9-1.6-9.2 5.3-10.7 33.9-26.7 91.1-26.7 57.2 0 85.8 16 91.1 26.7 1.1 2.3 1.7 4.9-1.6 9.2-11 14.2-49.5 25-89.5 25z"  horiz-adv-x="1024" />

    
    <glyph glyph-name="zhenyu" unicode="&#58921;" d="M644.8 561.4m-163.7 0a163.7 163.7 0 1 1 327.4 0 163.7 163.7 0 1 1-327.4 0ZM494.8 693.8c6.3-6.3 16.7-6.3 23.1 0l1.8 1.8c6.3 6.3 6.3 16.7 0 23.1l-27.4 27.4c-6.3 6.3-16.7 6.3-23.1 0l-1.8-1.8c-6.3-6.3-6.3-16.7 0-23.1l27.4-27.4zM461.4 565.3v2.6c0 9-7.3 16.3-16.3 16.3h-38.8c-9 0-16.3-7.3-16.3-16.3v-2.6c0-9 7.3-16.3 16.3-16.3h38.8c8.9 0 16.3 7.3 16.3 16.3zM510.5 436.2c-6.3 6.3-16.7 6.3-23.1 0L460 408.8c-6.3-6.3-6.3-16.7 0-23.1l1.8-1.8c6.3-6.3 16.7-6.3 23.1 0l27.4 27.4c6.3 6.3 6.3 16.7 0 23.1l-1.8 1.8zM640.9 378h-2.6c-9 0-16.3-7.3-16.3-16.3v-38.8c0-9 7.3-16.3 16.3-16.3h2.6c9 0 16.3 7.3 16.3 16.3v38.8c0 8.9-7.3 16.3-16.3 16.3zM794.8 429c-6.3 6.3-16.7 6.3-23.1 0l-1.8-1.8c-6.3-6.3-6.3-16.7 0-23.1l27.4-27.4c6.3-6.3 16.7-6.3 23.1 0l1.8 1.8c6.3 6.3 6.3 16.7 0 23.1L794.8 429zM883.3 573.8h-38.8c-9 0-16.3-7.3-16.3-16.3v-2.6c0-9 7.3-16.3 16.3-16.3h38.8c9 0 16.3 7.3 16.3 16.3v2.6c0 9-7.3 16.3-16.3 16.3zM779 686.5c6.3-6.3 16.7-6.3 23.1 0l27.4 27.4c6.3 6.3 6.3 16.7 0 23.1l-1.8 1.8c-6.3 6.3-16.7 6.3-23.1 0l-27.4-27.4c-6.3-6.3-6.3-16.7 0-23.1l1.8-1.8zM648.7 744.8h2.6c9 0 16.3 7.3 16.3 16.3V799.9c0 9-7.3 16.3-16.3 16.3h-2.6c-9 0-16.3-7.3-16.3-16.3v-38.8c0-8.9 7.3-16.3 16.3-16.3zM798.4 516.1c-15.1 3.3-30.3 6.1-45.5 8.4-22.5 132.7-137.9 233.7-277 233.7-148.9 0-270.7-115.8-280.3-262.2-46.8-30.1-87.5-82.6-87.5-151.5v-7.2c0-97.7 68.1-164 159.7-177.7 91.6-13.7 420-13.7 489.4 0s159.7 80 159.7 177.7v7.2c0 97.7-38.2 154.1-118.5 171.6zM573 34.5c0-47-26.9-60.6-50.4-60.6-22.2 0-50.4 13.6-50.4 60.6s50.4 85 50.4 85 50.4-38.1 50.4-85z"  horiz-adv-x="1024" />

    
    <glyph glyph-name="yu" unicode="&#58922;" d="M587.8 570.5c0-77.1-44.2-99.4-82.7-99.4-36.4 0-82.7 22.3-82.7 99.4S505.1 710 505.1 710s82.7-62.4 82.7-139.5zM417 357.7c0-77.1-44.2-99.4-82.7-99.4-36.4 0-82.7 22.3-82.7 99.4s82.7 139.5 82.7 139.5S417 434.7 417 357.7zM587.8 142.2c0-77.1-44.2-99.4-82.7-99.4-36.4 0-82.7 22.3-82.7 99.4s82.7 139.5 82.7 139.5 82.7-62.4 82.7-139.5zM782.1 357.7c0-77.1-44.2-99.4-82.7-99.4-36.4 0-82.7 22.3-82.7 99.4s82.7 139.5 82.7 139.5 82.7-62.5 82.7-139.5z"  horiz-adv-x="1024" />

    
    <glyph glyph-name="zhongxue-xiaodaozhongxue" unicode="&#58923;" d="M796.9 542.8c-15.1 3.3-30.3 6.1-45.5 8.4-22.5 132.7-137.9 233.7-277 233.7-148.9 0-270.7-115.8-280.3-262.2-46.8-30.1-87.5-82.6-87.5-151.5v-7.2c0-97.7 68.1-164 159.7-177.7 91.6-13.7 420-13.7 489.4 0s159.7 80 159.7 177.7v7.2c0.1 97.7-38.1 154.1-118.5 171.6zM565.3 27.9l-28.5 16.5 28.5 16.5c5.1 3 6.9 9.6 3.9 14.7-3 5.1-9.6 6.9-14.7 3.9L526 63v32.9c0 5.9-4.8 10.7-10.7 10.7-5.9 0-10.7-4.8-10.7-10.7V63l-28.5 16.5c-5.1 3-11.7 1.2-14.7-3.9s-1.2-11.7 3.9-14.7l28.5-16.5-28.5-16.5c-5.1-3-6.9-9.6-3.9-14.7 3-5.1 9.6-6.9 14.7-3.9l28.5 16.5v-32.9c0-5.9 4.8-10.7 10.7-10.7 5.9 0 10.7 4.8 10.7 10.7v32.9l28.5-16.5c5.1-3 11.7-1.2 14.7 3.9s1.2 11.7-3.9 14.7zM776.9 89.1L754.6 102l22.3 12.9c4 2.3 5.4 7.5 3.1 11.5-2.3 4-7.5 5.4-11.5 3.1l-22.3-12.9v25.7c0 4.6-3.8 8.4-8.4 8.4-4.6 0-8.4-3.8-8.4-8.4v-25.7l-22.3 12.9c-4 2.3-9.2 0.9-11.5-3.1-2.3-4-0.9-9.2 3.1-11.5L721 102l-22.3-12.9c-4-2.3-5.4-7.5-3.1-11.5 2.3-4 7.5-5.4 11.5-3.1l22.3 12.9v-25.7c0-4.6 3.8-8.4 8.4-8.4 4.6 0 8.4 3.8 8.4 8.4v25.7l22.3-12.9c4-2.3 9.2-0.9 11.5 3.1 2.3 4 0.9 9.1-3.1 11.5zM331.9 89.1L309.6 102l22.3 12.9c4 2.3 5.4 7.5 3.1 11.5-2.3 4-7.5 5.4-11.5 3.1l-22.3-12.9v25.7c0 4.6-3.8 8.4-8.4 8.4-4.6 0-8.4-3.8-8.4-8.4v-25.7l-22.3 12.9c-4 2.3-9.2 0.9-11.5-3.1-2.3-4-0.9-9.2 3.1-11.5L276 102l-22.3-12.9c-4-2.3-5.4-7.5-3.1-11.5 2.3-4 7.5-5.4 11.5-3.1l22.3 12.9v-25.7c0-4.6 3.8-8.4 8.4-8.4 4.6 0 8.4 3.8 8.4 8.4v25.7l22.3-12.9c4-2.3 9.2-0.9 11.5 3.1 2.3 4 0.9 9.1-3.1 11.5z"  horiz-adv-x="1024" />

    
    <glyph glyph-name="shachenbao" unicode="&#58924;" d="M553.820963 724.009709a21.5 21.5 0 1 1 8.530898 42.14527 21.5 21.5 0 1 1-8.530898-42.14527ZM836.388633 668.555239a21.5 21.5 0 1 1 8.530898 42.14527 21.5 21.5 0 1 1-8.530898-42.14527ZM668.293026 577.072138a21.5 21.5 0 1 1 8.530897 42.14527 21.5 21.5 0 1 1-8.530897-42.14527ZM329.384264 702.538581a21.5 21.5 0 1 1 8.530898 42.14527 21.5 21.5 0 1 1-8.530898-42.14527ZM399.801133 598.572226a21.5 21.5 0 1 1 8.530897 42.14527 21.5 21.5 0 1 1-8.530897-42.14527ZM154.074197 444.83689a21.5 21.5 0 1 1 8.530898 42.14527 21.5 21.5 0 1 1-8.530898-42.14527ZM197.001129 272.85423a21.5 21.5 0 1 1 8.530898 42.14527 21.5 21.5 0 1 1-8.530898-42.14527ZM298.096417 146.505991a21.5 21.5 0 1 1 8.530898 42.14527 21.5 21.5 0 1 1-8.530898-42.14527ZM389.097083 371.386907a21.5 21.5 0 1 1 8.530898 42.14527 21.5 21.5 0 1 1-8.530898-42.14527ZM605.105817 444.802229a21.5 21.5 0 1 1 8.530898 42.14527 21.5 21.5 0 1 1-8.530898-42.14527ZM703.557633 359.069143a21.5 21.5 0 1 1 8.530898 42.14527 21.5 21.5 0 1 1-8.530898-42.14527ZM814.776633 278.770181a21.5 21.5 0 1 1 8.530898 42.14527 21.5 21.5 0 1 1-8.530898-42.14527ZM789.270805 140.403037a21.5 21.5 0 1 1 8.530898 42.14527 21.5 21.5 0 1 1-8.530898-42.14527ZM639.991779 9.477662a21.5 21.5 0 1 1 8.530898 42.14527 21.5 21.5 0 1 1-8.530898-42.14527ZM410.515285 17.306921a21.5 21.5 0 1 1 8.530898 42.14527 21.5 21.5 0 1 1-8.530898-42.14527ZM539.1 404.6c-82.5 0-156.8 10.8-214.6 31.1-55.5 19.5-93 46.5-108.5 78.1-12.9 26.2-9.3 54.5 10.1 79.5 28.2 36.4 84 58.5 125.9 70.6 55.6 16.1 122 24.9 187.1 24.9s131.6-8.8 187.1-24.9c41.9-12.1 97.7-34.2 125.9-70.6 19.4-25.1 23-53.3 10.1-79.5-15.5-31.6-53-58.6-108.5-78.1-57.9-20.4-132.1-31.1-214.6-31.1z m0 260.3c-131.7 0-255.3-36.3-294-86.2-13.9-17.9-16.4-36.2-7.6-54.3 12.5-25.5 46.2-48.9 94.9-66 55.3-19.5 126.8-29.8 206.7-29.8s151.3 10.3 206.7 29.8c48.7 17.1 82.4 40.6 94.9 66 8.9 18.1 6.3 36.3-7.6 54.3-38.7 49.9-162.3 86.2-294 86.2zM529.9 282.9c-75 0-142.5 9.8-195.1 28.3-50.6 17.8-84.9 42.5-99.1 71.4-11.9 24.2-8.6 50.2 9.3 73.3 25.8 33.3 76.6 53.4 114.8 64.5C410.3 535 470.7 543 529.9 543s119.6-8 170.1-22.6c38.1-11 89-31.2 114.8-64.5 17.9-23.1 21.2-49.1 9.3-73.3-14.2-28.9-48.4-53.6-99.1-71.4-52.7-18.5-120.1-28.3-195.1-28.3z m0 236.2c-119.1 0-231-32.7-265.9-77.8-12.3-15.9-14.6-32.1-6.7-48.1 11.2-22.8 41.6-43.9 85.5-59.4 50.1-17.6 114.8-26.9 187.1-26.9s137 9.3 187.1 26.9c43.9 15.5 74.3 36.5 85.5 59.4 7.8 16 5.6 32.2-6.7 48.1-35 45.1-146.8 77.8-265.9 77.8zM547.9 143.1c-116.4 0-206.8 30.9-230.3 78.8-9.7 19.7-7 40.9 7.5 59.7 20.4 26.4 60.4 42.2 90.3 50.9 39.4 11.4 86.4 17.6 132.5 17.6s93.1-6.3 132.5-17.6c29.9-8.7 69.9-24.5 90.3-50.9 14.5-18.7 17.2-39.9 7.5-59.7-23.4-47.9-113.8-78.8-230.3-78.8z m0 182.9c-91.5 0-177.3-24.9-203.8-59.2-9-11.6-10.6-22.9-4.9-34.4 4.8-9.9 19.7-28.8 64.7-44.6 38.5-13.5 88.3-20.7 144.1-20.7 55.7 0 105.6 7.2 144.1 20.7 45 15.8 59.9 34.8 64.7 44.6 5.7 11.5 4 22.8-4.9 34.4-26.7 34.3-112.4 59.2-204 59.2zM561.2 55.3c-44.1 0-83.8 5.8-114.9 16.7-30.7 10.8-51.5 26-60.3 44-7.8 15.9-5.7 32.9 5.9 47.9 15.8 20.4 46.3 32.6 69.2 39.2 29.7 8.6 65.3 13.3 100.1 13.3s70.4-4.7 100.1-13.3c22.8-6.6 53.4-18.8 69.2-39.2 11.6-15 13.7-32 5.9-47.9-8.8-18-29.7-33.2-60.3-44-31.1-10.9-70.8-16.7-114.9-16.7z m0 137c-66.6 0-131.3-18.6-150.3-43.2-6-7.8-7.1-15-3.4-22.6 11.2-22.8 64-47.3 153.7-47.3s142.5 24.5 153.7 47.3c3.7 7.6 2.7 14.8-3.4 22.6-19.1 24.7-83.7 43.2-150.3 43.2zM603.8-16c-57.3 0-100.5 15.4-112.6 40.1-5.5 11.3-4 23.9 4.2 34.4 18.3 23.7 67.7 34.3 108.4 34.3s90.1-10.6 108.4-34.3c8.2-10.6 9.7-23.1 4.2-34.4-12.1-24.7-55.2-40.1-112.6-40.1z m0 84.9c-40 0-78.4-10.7-89.5-25-3.3-4.2-2.7-6.9-1.6-9.2C518 24 546.6 8 603.8 8c57.2 0 85.8 16 91.1 26.7 1.1 2.3 1.7 4.9-1.6 9.2-11 14.2-49.5 25-89.5 25z"  horiz-adv-x="1024" />

    
    <glyph glyph-name="zhenxue" unicode="&#58925;" d="M642 577.2m-163.7 0a163.7 163.7 0 1 1 327.4 0 163.7 163.7 0 1 1-327.4 0ZM492 709.6c6.3-6.3 16.7-6.3 23.1 0l1.8 1.8c6.3 6.3 6.3 16.7 0 23.1L489.4 762c-6.3 6.3-16.7 6.3-23.1 0l-1.8-1.8c-6.3-6.3-6.3-16.7 0-23.1l27.5-27.5zM458.6 581.1v2.6c0 9-7.3 16.3-16.3 16.3h-38.8c-9 0-16.3-7.3-16.3-16.3v-2.6c0-9 7.3-16.3 16.3-16.3h38.8c8.9 0 16.3 7.3 16.3 16.3zM507.7 452c-6.3 6.3-16.7 6.3-23.1 0l-27.4-27.4c-6.3-6.3-6.3-16.7 0-23.1l1.8-1.8c6.3-6.3 16.7-6.3 23.1 0l27.4 27.4c6.3 6.3 6.3 16.7 0 23.1l-1.8 1.8zM638.1 393.8h-2.6c-9 0-16.3-7.3-16.3-16.3v-38.8c0-9 7.3-16.3 16.3-16.3h2.6c9 0 16.3 7.3 16.3 16.3v38.8c0 8.9-7.3 16.3-16.3 16.3zM792 444.8c-6.3 6.3-16.7 6.3-23.1 0l-1.8-1.8c-6.3-6.3-6.3-16.7 0-23.1l27.4-27.4c6.3-6.3 16.7-6.3 23.1 0l1.8 1.8c6.3 6.3 6.3 16.7 0 23.1L792 444.8zM880.5 589.6h-38.8c-9 0-16.3-7.3-16.3-16.3v-2.6c0-9 7.3-16.3 16.3-16.3h38.8c9 0 16.3 7.3 16.3 16.3v2.6c0 9-7.3 16.3-16.3 16.3zM776.3 702.3c6.3-6.3 16.7-6.3 23.1 0l27.4 27.4c6.3 6.3 6.3 16.7 0 23.1l-1.8 1.8c-6.3 6.3-16.7 6.3-23.1 0l-27.4-27.4c-6.3-6.3-6.3-16.7 0-23.1l1.8-1.8zM645.9 760.6h2.6c9 0 16.3 7.3 16.3 16.3V815.7c0 9-7.3 16.3-16.3 16.3h-2.6c-9 0-16.3-7.3-16.3-16.3v-38.8c0-8.9 7.3-16.3 16.3-16.3zM795.6 531.9c-15.1 3.3-30.3 6.1-45.5 8.4C727.6 673 612.2 774 473.1 774c-148.9 0-270.7-115.8-280.3-262.2-46.8-30.1-87.5-82.6-87.5-151.5v-7.2c0-97.7 68.1-164 159.7-177.7 91.6-13.7 420-13.7 489.4 0s159.7 80 159.7 177.7v7.2c0 97.7-38.2 154.1-118.5 171.6zM586.6 18.1L552.2 38l34.4 19.9c6.2 3.6 8.3 11.5 4.7 17.7-3.6 6.2-11.5 8.3-17.7 4.7l-34.4-19.9v39.7c0 7.1-5.8 13-13 13-7.1 0-13-5.8-13-13v-39.7l-34.4 19.9c-6.2 3.6-14.1 1.4-17.7-4.7-3.6-6.2-1.4-14.1 4.7-17.7l34.4-19.9-34.4-19.9c-6.2-3.6-8.3-11.5-4.7-17.7 3.6-6.2 11.5-8.3 17.7-4.7l34.4 19.9v-39.7c0-7.1 5.8-13 13-13 7.1 0 13 5.8 13 13v39.7l34.4-19.9c6.2-3.6 14.1-1.4 17.7 4.7 3.6 6.2 1.5 14.2-4.7 17.7zM801.7 85l-28.1 16.2 28.1 16.2c5.1 2.9 6.8 9.4 3.9 14.5s-9.4 6.8-14.5 3.9L763 119.6v32.5c0 5.8-4.8 10.6-10.6 10.6s-10.6-4.8-10.6-10.6v-32.5l-28.1 16.2c-5.1 2.9-11.6 1.2-14.5-3.9-2.9-5.1-1.2-11.6 3.9-14.5l28.1-16.2-28.1-16.2c-5.1-2.9-6.8-9.4-3.9-14.5s9.4-6.8 14.5-3.9l28.1 16.2v-32.5c0-5.8 4.8-10.6 10.6-10.6s10.6 4.8 10.6 10.6v32.5l28.1-16.2c5.1-2.9 11.6-1.2 14.5 3.9 2.9 5 1.2 11.6-3.9 14.5zM349.5 85l-28.1 16.2 28.1 16.2c5.1 2.9 6.8 9.4 3.9 14.5s-9.4 6.8-14.5 3.9l-28.1-16.2v32.5c0 5.8-4.8 10.6-10.6 10.6s-10.6-4.8-10.6-10.6v-32.5l-28.1 16.2c-5.1 2.9-11.6 1.2-14.5-3.9-2.9-5.1-1.2-11.6 3.9-14.5l28.1-16.2-28.2-16.2c-5.1-2.9-6.8-9.4-3.9-14.5s9.4-6.8 14.5-3.9l28.1 16.2v-32.5c0-5.8 4.8-10.6 10.6-10.6s10.6 4.8 10.6 10.6v32.5l28.1-16.2c5.1-2.9 11.6-1.2 14.5 3.9 3 5 1.3 11.6-3.8 14.5z"  horiz-adv-x="1024" />

    
    <glyph glyph-name="re1" unicode="&#58926;" d="M625.3 430.2v252c0 62-50.4 112.4-112.4 112.4-29.9 0-58.2-11.7-79.4-33-21.3-21.3-33-49.5-33-79.4v-252C321 388.6 270.6 306.3 270.6 215.6c0-64.7 25.2-125.5 70.9-171.3 45.7-45.7 106.6-70.9 171.3-70.9s125.5 25.2 171.3 70.9C729.8 90 755 150.9 755 215.6c0 90.7-50.3 173-129.7 214.6zM512.8 29.4c-102.7 0-186.2 83.5-186.2 186.2 0 74.6 44.3 141.8 112.8 171.2l17 7.3V654.2h112.9v-260.1l17-7.3C654.7 357.4 699 290.2 699 215.6c0-102.7-83.5-186.2-186.2-186.2zM291.9 643.2h50.6c14.4 0 26.2 11.8 26.2 26.2 0 14.4-11.8 26.2-26.2 26.2h-50.6c-14.4 0-26.2-11.8-26.2-26.2 0-14.4 11.8-26.2 26.2-26.2zM306.2 611.9c-13.2 0-24-10.8-24-24v-4.4c0-13.2 10.8-24 24-24h38.5c13.2 0 24 10.8 24 24v4.4c0 13.2-10.8 24-24 24h-38.5zM291.9 475.7h50.6c14.4 0 26.2 11.8 26.2 26.2 0 14.4-11.8 26.2-26.2 26.2h-50.6c-14.4 0-26.2-11.8-26.2-26.2 0-14.4 11.8-26.2 26.2-26.2z"  horiz-adv-x="1024" />

    


  </font>
</defs>
</svg>
